<?xml version="1.0" encoding="utf-8" standalone="no"?>
<!DOCTYPE svg PUBLIC "-//W3C//DTD SVG 1.1//EN"
  "http://www.w3.org/Graphics/SVG/1.1/DTD/svg11.dtd">
<svg xmlns:xlink="http://www.w3.org/1999/xlink" width="713.611562pt" height="424.886625pt" viewBox="0 0 713.611562 424.886625" xmlns="http://www.w3.org/2000/svg" version="1.1">
 <metadata>
  <rdf:RDF xmlns:dc="http://purl.org/dc/elements/1.1/" xmlns:cc="http://creativecommons.org/ns#" xmlns:rdf="http://www.w3.org/1999/02/22-rdf-syntax-ns#">
   <cc:Work>
    <dc:type rdf:resource="http://purl.org/dc/dcmitype/StillImage"/>
    <dc:date>2025-07-22T14:40:45.118903</dc:date>
    <dc:format>image/svg+xml</dc:format>
    <dc:creator>
     <cc:Agent>
      <dc:title>Matplotlib v3.10.0, https://matplotlib.org/</dc:title>
     </cc:Agent>
    </dc:creator>
   </cc:Work>
  </rdf:RDF>
 </metadata>
 <defs>
  <style type="text/css">*{stroke-linejoin: round; stroke-linecap: butt}</style>
 </defs>
 <g id="figure_1">
  <g id="patch_1">
   <path d="M 0 424.886625 
L 713.611562 424.886625 
L 713.611562 0 
L 0 0 
z
" style="fill: #ffffff"/>
  </g>
  <g id="axes_1">
   <g id="patch_2">
    <path d="M 48.995 385.39475 
L 698.46 385.39475 
L 698.46 39.51475 
L 48.995 39.51475 
z
" style="fill: #ffffff"/>
   </g>
   <g id="matplotlib.axis_1">
    <g id="xtick_1">
     <g id="line2d_1">
      <path d="M 48.995 385.39475 
L 48.995 39.51475 
" clip-path="url(#p4bac286758)" style="fill: none; stroke: #b0b0b0; stroke-opacity: 0.3; stroke-width: 0.8; stroke-linecap: square"/>
     </g>
     <g id="line2d_2">
      <defs>
       <path id="mca234ad369" d="M 0 0 
L 0 3.5 
" style="stroke: #000000; stroke-width: 0.8"/>
      </defs>
      <g>
       <use xlink:href="#mca234ad369" x="48.995" y="385.39475" style="stroke: #000000; stroke-width: 0.8"/>
      </g>
     </g>
     <g id="text_1">
      <!-- 0.0 -->
      <g transform="translate(41.043438 399.993187) scale(0.1 -0.1)">
       <defs>
        <path id="DejaVuSans-30" d="M 2034 4250 
Q 1547 4250 1301 3770 
Q 1056 3291 1056 2328 
Q 1056 1369 1301 889 
Q 1547 409 2034 409 
Q 2525 409 2770 889 
Q 3016 1369 3016 2328 
Q 3016 3291 2770 3770 
Q 2525 4250 2034 4250 
z
M 2034 4750 
Q 2819 4750 3233 4129 
Q 3647 3509 3647 2328 
Q 3647 1150 3233 529 
Q 2819 -91 2034 -91 
Q 1250 -91 836 529 
Q 422 1150 422 2328 
Q 422 3509 836 4129 
Q 1250 4750 2034 4750 
z
" transform="scale(0.015625)"/>
        <path id="DejaVuSans-2e" d="M 684 794 
L 1344 794 
L 1344 0 
L 684 0 
L 684 794 
z
" transform="scale(0.015625)"/>
       </defs>
       <use xlink:href="#DejaVuSans-30"/>
       <use xlink:href="#DejaVuSans-2e" transform="translate(63.623047 0)"/>
       <use xlink:href="#DejaVuSans-30" transform="translate(95.410156 0)"/>
      </g>
     </g>
    </g>
    <g id="xtick_2">
     <g id="line2d_3">
      <path d="M 178.888 385.39475 
L 178.888 39.51475 
" clip-path="url(#p4bac286758)" style="fill: none; stroke: #b0b0b0; stroke-opacity: 0.3; stroke-width: 0.8; stroke-linecap: square"/>
     </g>
     <g id="line2d_4">
      <g>
       <use xlink:href="#mca234ad369" x="178.888" y="385.39475" style="stroke: #000000; stroke-width: 0.8"/>
      </g>
     </g>
     <g id="text_2">
      <!-- 0.2 -->
      <g transform="translate(170.936438 399.993187) scale(0.1 -0.1)">
       <defs>
        <path id="DejaVuSans-32" d="M 1228 531 
L 3431 531 
L 3431 0 
L 469 0 
L 469 531 
Q 828 903 1448 1529 
Q 2069 2156 2228 2338 
Q 2531 2678 2651 2914 
Q 2772 3150 2772 3378 
Q 2772 3750 2511 3984 
Q 2250 4219 1831 4219 
Q 1534 4219 1204 4116 
Q 875 4013 500 3803 
L 500 4441 
Q 881 4594 1212 4672 
Q 1544 4750 1819 4750 
Q 2544 4750 2975 4387 
Q 3406 4025 3406 3419 
Q 3406 3131 3298 2873 
Q 3191 2616 2906 2266 
Q 2828 2175 2409 1742 
Q 1991 1309 1228 531 
z
" transform="scale(0.015625)"/>
       </defs>
       <use xlink:href="#DejaVuSans-30"/>
       <use xlink:href="#DejaVuSans-2e" transform="translate(63.623047 0)"/>
       <use xlink:href="#DejaVuSans-32" transform="translate(95.410156 0)"/>
      </g>
     </g>
    </g>
    <g id="xtick_3">
     <g id="line2d_5">
      <path d="M 308.781 385.39475 
L 308.781 39.51475 
" clip-path="url(#p4bac286758)" style="fill: none; stroke: #b0b0b0; stroke-opacity: 0.3; stroke-width: 0.8; stroke-linecap: square"/>
     </g>
     <g id="line2d_6">
      <g>
       <use xlink:href="#mca234ad369" x="308.781" y="385.39475" style="stroke: #000000; stroke-width: 0.8"/>
      </g>
     </g>
     <g id="text_3">
      <!-- 0.4 -->
      <g transform="translate(300.829437 399.993187) scale(0.1 -0.1)">
       <defs>
        <path id="DejaVuSans-34" d="M 2419 4116 
L 825 1625 
L 2419 1625 
L 2419 4116 
z
M 2253 4666 
L 3047 4666 
L 3047 1625 
L 3713 1625 
L 3713 1100 
L 3047 1100 
L 3047 0 
L 2419 0 
L 2419 1100 
L 313 1100 
L 313 1709 
L 2253 4666 
z
" transform="scale(0.015625)"/>
       </defs>
       <use xlink:href="#DejaVuSans-30"/>
       <use xlink:href="#DejaVuSans-2e" transform="translate(63.623047 0)"/>
       <use xlink:href="#DejaVuSans-34" transform="translate(95.410156 0)"/>
      </g>
     </g>
    </g>
    <g id="xtick_4">
     <g id="line2d_7">
      <path d="M 438.674 385.39475 
L 438.674 39.51475 
" clip-path="url(#p4bac286758)" style="fill: none; stroke: #b0b0b0; stroke-opacity: 0.3; stroke-width: 0.8; stroke-linecap: square"/>
     </g>
     <g id="line2d_8">
      <g>
       <use xlink:href="#mca234ad369" x="438.674" y="385.39475" style="stroke: #000000; stroke-width: 0.8"/>
      </g>
     </g>
     <g id="text_4">
      <!-- 0.6 -->
      <g transform="translate(430.722438 399.993187) scale(0.1 -0.1)">
       <defs>
        <path id="DejaVuSans-36" d="M 2113 2584 
Q 1688 2584 1439 2293 
Q 1191 2003 1191 1497 
Q 1191 994 1439 701 
Q 1688 409 2113 409 
Q 2538 409 2786 701 
Q 3034 994 3034 1497 
Q 3034 2003 2786 2293 
Q 2538 2584 2113 2584 
z
M 3366 4563 
L 3366 3988 
Q 3128 4100 2886 4159 
Q 2644 4219 2406 4219 
Q 1781 4219 1451 3797 
Q 1122 3375 1075 2522 
Q 1259 2794 1537 2939 
Q 1816 3084 2150 3084 
Q 2853 3084 3261 2657 
Q 3669 2231 3669 1497 
Q 3669 778 3244 343 
Q 2819 -91 2113 -91 
Q 1303 -91 875 529 
Q 447 1150 447 2328 
Q 447 3434 972 4092 
Q 1497 4750 2381 4750 
Q 2619 4750 2861 4703 
Q 3103 4656 3366 4563 
z
" transform="scale(0.015625)"/>
       </defs>
       <use xlink:href="#DejaVuSans-30"/>
       <use xlink:href="#DejaVuSans-2e" transform="translate(63.623047 0)"/>
       <use xlink:href="#DejaVuSans-36" transform="translate(95.410156 0)"/>
      </g>
     </g>
    </g>
    <g id="xtick_5">
     <g id="line2d_9">
      <path d="M 568.567 385.39475 
L 568.567 39.51475 
" clip-path="url(#p4bac286758)" style="fill: none; stroke: #b0b0b0; stroke-opacity: 0.3; stroke-width: 0.8; stroke-linecap: square"/>
     </g>
     <g id="line2d_10">
      <g>
       <use xlink:href="#mca234ad369" x="568.567" y="385.39475" style="stroke: #000000; stroke-width: 0.8"/>
      </g>
     </g>
     <g id="text_5">
      <!-- 0.8 -->
      <g transform="translate(560.615437 399.993187) scale(0.1 -0.1)">
       <defs>
        <path id="DejaVuSans-38" d="M 2034 2216 
Q 1584 2216 1326 1975 
Q 1069 1734 1069 1313 
Q 1069 891 1326 650 
Q 1584 409 2034 409 
Q 2484 409 2743 651 
Q 3003 894 3003 1313 
Q 3003 1734 2745 1975 
Q 2488 2216 2034 2216 
z
M 1403 2484 
Q 997 2584 770 2862 
Q 544 3141 544 3541 
Q 544 4100 942 4425 
Q 1341 4750 2034 4750 
Q 2731 4750 3128 4425 
Q 3525 4100 3525 3541 
Q 3525 3141 3298 2862 
Q 3072 2584 2669 2484 
Q 3125 2378 3379 2068 
Q 3634 1759 3634 1313 
Q 3634 634 3220 271 
Q 2806 -91 2034 -91 
Q 1263 -91 848 271 
Q 434 634 434 1313 
Q 434 1759 690 2068 
Q 947 2378 1403 2484 
z
M 1172 3481 
Q 1172 3119 1398 2916 
Q 1625 2713 2034 2713 
Q 2441 2713 2670 2916 
Q 2900 3119 2900 3481 
Q 2900 3844 2670 4047 
Q 2441 4250 2034 4250 
Q 1625 4250 1398 4047 
Q 1172 3844 1172 3481 
z
" transform="scale(0.015625)"/>
       </defs>
       <use xlink:href="#DejaVuSans-30"/>
       <use xlink:href="#DejaVuSans-2e" transform="translate(63.623047 0)"/>
       <use xlink:href="#DejaVuSans-38" transform="translate(95.410156 0)"/>
      </g>
     </g>
    </g>
    <g id="xtick_6">
     <g id="line2d_11">
      <path d="M 698.46 385.39475 
L 698.46 39.51475 
" clip-path="url(#p4bac286758)" style="fill: none; stroke: #b0b0b0; stroke-opacity: 0.3; stroke-width: 0.8; stroke-linecap: square"/>
     </g>
     <g id="line2d_12">
      <g>
       <use xlink:href="#mca234ad369" x="698.46" y="385.39475" style="stroke: #000000; stroke-width: 0.8"/>
      </g>
     </g>
     <g id="text_6">
      <!-- 1.0 -->
      <g transform="translate(690.508438 399.993187) scale(0.1 -0.1)">
       <defs>
        <path id="DejaVuSans-31" d="M 794 531 
L 1825 531 
L 1825 4091 
L 703 3866 
L 703 4441 
L 1819 4666 
L 2450 4666 
L 2450 531 
L 3481 531 
L 3481 0 
L 794 0 
L 794 531 
z
" transform="scale(0.015625)"/>
       </defs>
       <use xlink:href="#DejaVuSans-31"/>
       <use xlink:href="#DejaVuSans-2e" transform="translate(63.623047 0)"/>
       <use xlink:href="#DejaVuSans-30" transform="translate(95.410156 0)"/>
      </g>
     </g>
    </g>
    <g id="text_7">
     <!-- Coefficient Value -->
     <g transform="translate(316.18375 415.191) scale(0.12 -0.12)">
      <defs>
       <path id="DejaVuSans-Bold-43" d="M 4288 256 
Q 3956 84 3597 -3 
Q 3238 -91 2847 -91 
Q 1681 -91 1000 561 
Q 319 1213 319 2328 
Q 319 3447 1000 4098 
Q 1681 4750 2847 4750 
Q 3238 4750 3597 4662 
Q 3956 4575 4288 4403 
L 4288 3438 
Q 3953 3666 3628 3772 
Q 3303 3878 2944 3878 
Q 2300 3878 1931 3465 
Q 1563 3053 1563 2328 
Q 1563 1606 1931 1193 
Q 2300 781 2944 781 
Q 3303 781 3628 887 
Q 3953 994 4288 1222 
L 4288 256 
z
" transform="scale(0.015625)"/>
       <path id="DejaVuSans-Bold-6f" d="M 2203 2784 
Q 1831 2784 1636 2517 
Q 1441 2250 1441 1747 
Q 1441 1244 1636 976 
Q 1831 709 2203 709 
Q 2569 709 2762 976 
Q 2956 1244 2956 1747 
Q 2956 2250 2762 2517 
Q 2569 2784 2203 2784 
z
M 2203 3584 
Q 3106 3584 3614 3096 
Q 4122 2609 4122 1747 
Q 4122 884 3614 396 
Q 3106 -91 2203 -91 
Q 1297 -91 786 396 
Q 275 884 275 1747 
Q 275 2609 786 3096 
Q 1297 3584 2203 3584 
z
" transform="scale(0.015625)"/>
       <path id="DejaVuSans-Bold-65" d="M 4031 1759 
L 4031 1441 
L 1416 1441 
Q 1456 1047 1700 850 
Q 1944 653 2381 653 
Q 2734 653 3104 758 
Q 3475 863 3866 1075 
L 3866 213 
Q 3469 63 3072 -14 
Q 2675 -91 2278 -91 
Q 1328 -91 801 392 
Q 275 875 275 1747 
Q 275 2603 792 3093 
Q 1309 3584 2216 3584 
Q 3041 3584 3536 3087 
Q 4031 2591 4031 1759 
z
M 2881 2131 
Q 2881 2450 2695 2645 
Q 2509 2841 2209 2841 
Q 1884 2841 1681 2658 
Q 1478 2475 1428 2131 
L 2881 2131 
z
" transform="scale(0.015625)"/>
       <path id="DejaVuSans-Bold-66" d="M 2841 4863 
L 2841 4128 
L 2222 4128 
Q 1984 4128 1890 4042 
Q 1797 3956 1797 3744 
L 1797 3500 
L 2753 3500 
L 2753 2700 
L 1797 2700 
L 1797 0 
L 678 0 
L 678 2700 
L 122 2700 
L 122 3500 
L 678 3500 
L 678 3744 
Q 678 4316 997 4589 
Q 1316 4863 1984 4863 
L 2841 4863 
z
" transform="scale(0.015625)"/>
       <path id="DejaVuSans-Bold-69" d="M 538 3500 
L 1656 3500 
L 1656 0 
L 538 0 
L 538 3500 
z
M 538 4863 
L 1656 4863 
L 1656 3950 
L 538 3950 
L 538 4863 
z
" transform="scale(0.015625)"/>
       <path id="DejaVuSans-Bold-63" d="M 3366 3391 
L 3366 2478 
Q 3138 2634 2908 2709 
Q 2678 2784 2431 2784 
Q 1963 2784 1702 2511 
Q 1441 2238 1441 1747 
Q 1441 1256 1702 982 
Q 1963 709 2431 709 
Q 2694 709 2930 787 
Q 3166 866 3366 1019 
L 3366 103 
Q 3103 6 2833 -42 
Q 2563 -91 2291 -91 
Q 1344 -91 809 395 
Q 275 881 275 1747 
Q 275 2613 809 3098 
Q 1344 3584 2291 3584 
Q 2566 3584 2833 3536 
Q 3100 3488 3366 3391 
z
" transform="scale(0.015625)"/>
       <path id="DejaVuSans-Bold-6e" d="M 4056 2131 
L 4056 0 
L 2931 0 
L 2931 347 
L 2931 1631 
Q 2931 2084 2911 2256 
Q 2891 2428 2841 2509 
Q 2775 2619 2662 2680 
Q 2550 2741 2406 2741 
Q 2056 2741 1856 2470 
Q 1656 2200 1656 1722 
L 1656 0 
L 538 0 
L 538 3500 
L 1656 3500 
L 1656 2988 
Q 1909 3294 2193 3439 
Q 2478 3584 2822 3584 
Q 3428 3584 3742 3212 
Q 4056 2841 4056 2131 
z
" transform="scale(0.015625)"/>
       <path id="DejaVuSans-Bold-74" d="M 1759 4494 
L 1759 3500 
L 2913 3500 
L 2913 2700 
L 1759 2700 
L 1759 1216 
Q 1759 972 1856 886 
Q 1953 800 2241 800 
L 2816 800 
L 2816 0 
L 1856 0 
Q 1194 0 917 276 
Q 641 553 641 1216 
L 641 2700 
L 84 2700 
L 84 3500 
L 641 3500 
L 641 4494 
L 1759 4494 
z
" transform="scale(0.015625)"/>
       <path id="DejaVuSans-Bold-20" transform="scale(0.015625)"/>
       <path id="DejaVuSans-Bold-56" d="M 31 4666 
L 1241 4666 
L 2478 1222 
L 3713 4666 
L 4922 4666 
L 3194 0 
L 1759 0 
L 31 4666 
z
" transform="scale(0.015625)"/>
       <path id="DejaVuSans-Bold-61" d="M 2106 1575 
Q 1756 1575 1579 1456 
Q 1403 1338 1403 1106 
Q 1403 894 1545 773 
Q 1688 653 1941 653 
Q 2256 653 2472 879 
Q 2688 1106 2688 1447 
L 2688 1575 
L 2106 1575 
z
M 3816 1997 
L 3816 0 
L 2688 0 
L 2688 519 
Q 2463 200 2181 54 
Q 1900 -91 1497 -91 
Q 953 -91 614 226 
Q 275 544 275 1050 
Q 275 1666 698 1953 
Q 1122 2241 2028 2241 
L 2688 2241 
L 2688 2328 
Q 2688 2594 2478 2717 
Q 2269 2841 1825 2841 
Q 1466 2841 1156 2769 
Q 847 2697 581 2553 
L 581 3406 
Q 941 3494 1303 3539 
Q 1666 3584 2028 3584 
Q 2975 3584 3395 3211 
Q 3816 2838 3816 1997 
z
" transform="scale(0.015625)"/>
       <path id="DejaVuSans-Bold-6c" d="M 538 4863 
L 1656 4863 
L 1656 0 
L 538 0 
L 538 4863 
z
" transform="scale(0.015625)"/>
       <path id="DejaVuSans-Bold-75" d="M 500 1363 
L 500 3500 
L 1625 3500 
L 1625 3150 
Q 1625 2866 1622 2436 
Q 1619 2006 1619 1863 
Q 1619 1441 1641 1255 
Q 1663 1069 1716 984 
Q 1784 875 1895 815 
Q 2006 756 2150 756 
Q 2500 756 2700 1025 
Q 2900 1294 2900 1772 
L 2900 3500 
L 4019 3500 
L 4019 0 
L 2900 0 
L 2900 506 
Q 2647 200 2364 54 
Q 2081 -91 1741 -91 
Q 1134 -91 817 281 
Q 500 653 500 1363 
z
" transform="scale(0.015625)"/>
      </defs>
      <use xlink:href="#DejaVuSans-Bold-43"/>
      <use xlink:href="#DejaVuSans-Bold-6f" transform="translate(73.388672 0)"/>
      <use xlink:href="#DejaVuSans-Bold-65" transform="translate(142.089844 0)"/>
      <use xlink:href="#DejaVuSans-Bold-66" transform="translate(209.912109 0)"/>
      <use xlink:href="#DejaVuSans-Bold-66" transform="translate(253.417969 0)"/>
      <use xlink:href="#DejaVuSans-Bold-69" transform="translate(296.923828 0)"/>
      <use xlink:href="#DejaVuSans-Bold-63" transform="translate(331.201172 0)"/>
      <use xlink:href="#DejaVuSans-Bold-69" transform="translate(390.478516 0)"/>
      <use xlink:href="#DejaVuSans-Bold-65" transform="translate(424.755859 0)"/>
      <use xlink:href="#DejaVuSans-Bold-6e" transform="translate(492.578125 0)"/>
      <use xlink:href="#DejaVuSans-Bold-74" transform="translate(563.769531 0)"/>
      <use xlink:href="#DejaVuSans-Bold-20" transform="translate(611.572266 0)"/>
      <use xlink:href="#DejaVuSans-Bold-56" transform="translate(646.386719 0)"/>
      <use xlink:href="#DejaVuSans-Bold-61" transform="translate(718.279297 0)"/>
      <use xlink:href="#DejaVuSans-Bold-6c" transform="translate(785.759766 0)"/>
      <use xlink:href="#DejaVuSans-Bold-75" transform="translate(820.037109 0)"/>
      <use xlink:href="#DejaVuSans-Bold-65" transform="translate(891.228516 0)"/>
     </g>
    </g>
   </g>
   <g id="matplotlib.axis_2">
    <g id="ytick_1">
     <g id="line2d_13">
      <path d="M 48.995 385.39475 
L 698.46 385.39475 
" clip-path="url(#p4bac286758)" style="fill: none; stroke: #b0b0b0; stroke-opacity: 0.3; stroke-width: 0.8; stroke-linecap: square"/>
     </g>
     <g id="line2d_14">
      <defs>
       <path id="m10d941ac75" d="M 0 0 
L -3.5 0 
" style="stroke: #000000; stroke-width: 0.8"/>
      </defs>
      <g>
       <use xlink:href="#m10d941ac75" x="48.995" y="385.39475" style="stroke: #000000; stroke-width: 0.8"/>
      </g>
     </g>
     <g id="text_8">
      <!-- 0 -->
      <g transform="translate(35.6325 389.193969) scale(0.1 -0.1)">
       <use xlink:href="#DejaVuSans-30"/>
      </g>
     </g>
    </g>
    <g id="ytick_2">
     <g id="line2d_15">
      <path d="M 48.995 316.21875 
L 698.46 316.21875 
" clip-path="url(#p4bac286758)" style="fill: none; stroke: #b0b0b0; stroke-opacity: 0.3; stroke-width: 0.8; stroke-linecap: square"/>
     </g>
     <g id="line2d_16">
      <g>
       <use xlink:href="#m10d941ac75" x="48.995" y="316.21875" style="stroke: #000000; stroke-width: 0.8"/>
      </g>
     </g>
     <g id="text_9">
      <!-- 20 -->
      <g transform="translate(29.27 320.017969) scale(0.1 -0.1)">
       <use xlink:href="#DejaVuSans-32"/>
       <use xlink:href="#DejaVuSans-30" transform="translate(63.623047 0)"/>
      </g>
     </g>
    </g>
    <g id="ytick_3">
     <g id="line2d_17">
      <path d="M 48.995 247.04275 
L 698.46 247.04275 
" clip-path="url(#p4bac286758)" style="fill: none; stroke: #b0b0b0; stroke-opacity: 0.3; stroke-width: 0.8; stroke-linecap: square"/>
     </g>
     <g id="line2d_18">
      <g>
       <use xlink:href="#m10d941ac75" x="48.995" y="247.04275" style="stroke: #000000; stroke-width: 0.8"/>
      </g>
     </g>
     <g id="text_10">
      <!-- 40 -->
      <g transform="translate(29.27 250.841969) scale(0.1 -0.1)">
       <use xlink:href="#DejaVuSans-34"/>
       <use xlink:href="#DejaVuSans-30" transform="translate(63.623047 0)"/>
      </g>
     </g>
    </g>
    <g id="ytick_4">
     <g id="line2d_19">
      <path d="M 48.995 177.86675 
L 698.46 177.86675 
" clip-path="url(#p4bac286758)" style="fill: none; stroke: #b0b0b0; stroke-opacity: 0.3; stroke-width: 0.8; stroke-linecap: square"/>
     </g>
     <g id="line2d_20">
      <g>
       <use xlink:href="#m10d941ac75" x="48.995" y="177.86675" style="stroke: #000000; stroke-width: 0.8"/>
      </g>
     </g>
     <g id="text_11">
      <!-- 60 -->
      <g transform="translate(29.27 181.665969) scale(0.1 -0.1)">
       <use xlink:href="#DejaVuSans-36"/>
       <use xlink:href="#DejaVuSans-30" transform="translate(63.623047 0)"/>
      </g>
     </g>
    </g>
    <g id="ytick_5">
     <g id="line2d_21">
      <path d="M 48.995 108.69075 
L 698.46 108.69075 
" clip-path="url(#p4bac286758)" style="fill: none; stroke: #b0b0b0; stroke-opacity: 0.3; stroke-width: 0.8; stroke-linecap: square"/>
     </g>
     <g id="line2d_22">
      <g>
       <use xlink:href="#m10d941ac75" x="48.995" y="108.69075" style="stroke: #000000; stroke-width: 0.8"/>
      </g>
     </g>
     <g id="text_12">
      <!-- 80 -->
      <g transform="translate(29.27 112.489969) scale(0.1 -0.1)">
       <use xlink:href="#DejaVuSans-38"/>
       <use xlink:href="#DejaVuSans-30" transform="translate(63.623047 0)"/>
      </g>
     </g>
    </g>
    <g id="ytick_6">
     <g id="line2d_23">
      <path d="M 48.995 39.51475 
L 698.46 39.51475 
" clip-path="url(#p4bac286758)" style="fill: none; stroke: #b0b0b0; stroke-opacity: 0.3; stroke-width: 0.8; stroke-linecap: square"/>
     </g>
     <g id="line2d_24">
      <g>
       <use xlink:href="#m10d941ac75" x="48.995" y="39.51475" style="stroke: #000000; stroke-width: 0.8"/>
      </g>
     </g>
     <g id="text_13">
      <!-- 100 -->
      <g transform="translate(22.9075 43.313969) scale(0.1 -0.1)">
       <use xlink:href="#DejaVuSans-31"/>
       <use xlink:href="#DejaVuSans-30" transform="translate(63.623047 0)"/>
       <use xlink:href="#DejaVuSans-30" transform="translate(127.246094 0)"/>
      </g>
     </g>
    </g>
    <g id="text_14">
     <!-- Percent of gene pairs -->
     <g transform="translate(16.318125 285.280687) rotate(-90) scale(0.12 -0.12)">
      <defs>
       <path id="DejaVuSans-Bold-50" d="M 588 4666 
L 2584 4666 
Q 3475 4666 3951 4270 
Q 4428 3875 4428 3144 
Q 4428 2409 3951 2014 
Q 3475 1619 2584 1619 
L 1791 1619 
L 1791 0 
L 588 0 
L 588 4666 
z
M 1791 3794 
L 1791 2491 
L 2456 2491 
Q 2806 2491 2997 2661 
Q 3188 2831 3188 3144 
Q 3188 3456 2997 3625 
Q 2806 3794 2456 3794 
L 1791 3794 
z
" transform="scale(0.015625)"/>
       <path id="DejaVuSans-Bold-72" d="M 3138 2547 
Q 2991 2616 2845 2648 
Q 2700 2681 2553 2681 
Q 2122 2681 1889 2404 
Q 1656 2128 1656 1613 
L 1656 0 
L 538 0 
L 538 3500 
L 1656 3500 
L 1656 2925 
Q 1872 3269 2151 3426 
Q 2431 3584 2822 3584 
Q 2878 3584 2943 3579 
Q 3009 3575 3134 3559 
L 3138 2547 
z
" transform="scale(0.015625)"/>
       <path id="DejaVuSans-Bold-67" d="M 2919 594 
Q 2688 288 2409 144 
Q 2131 0 1766 0 
Q 1125 0 706 504 
Q 288 1009 288 1791 
Q 288 2575 706 3076 
Q 1125 3578 1766 3578 
Q 2131 3578 2409 3434 
Q 2688 3291 2919 2981 
L 2919 3500 
L 4044 3500 
L 4044 353 
Q 4044 -491 3511 -936 
Q 2978 -1381 1966 -1381 
Q 1638 -1381 1331 -1331 
Q 1025 -1281 716 -1178 
L 716 -306 
Q 1009 -475 1290 -558 
Q 1572 -641 1856 -641 
Q 2406 -641 2662 -400 
Q 2919 -159 2919 353 
L 2919 594 
z
M 2181 2772 
Q 1834 2772 1640 2515 
Q 1447 2259 1447 1791 
Q 1447 1309 1634 1061 
Q 1822 813 2181 813 
Q 2531 813 2725 1069 
Q 2919 1325 2919 1791 
Q 2919 2259 2725 2515 
Q 2531 2772 2181 2772 
z
" transform="scale(0.015625)"/>
       <path id="DejaVuSans-Bold-70" d="M 1656 506 
L 1656 -1331 
L 538 -1331 
L 538 3500 
L 1656 3500 
L 1656 2988 
Q 1888 3294 2169 3439 
Q 2450 3584 2816 3584 
Q 3463 3584 3878 3070 
Q 4294 2556 4294 1747 
Q 4294 938 3878 423 
Q 3463 -91 2816 -91 
Q 2450 -91 2169 54 
Q 1888 200 1656 506 
z
M 2400 2772 
Q 2041 2772 1848 2508 
Q 1656 2244 1656 1747 
Q 1656 1250 1848 986 
Q 2041 722 2400 722 
Q 2759 722 2948 984 
Q 3138 1247 3138 1747 
Q 3138 2247 2948 2509 
Q 2759 2772 2400 2772 
z
" transform="scale(0.015625)"/>
       <path id="DejaVuSans-Bold-73" d="M 3272 3391 
L 3272 2541 
Q 2913 2691 2578 2766 
Q 2244 2841 1947 2841 
Q 1628 2841 1473 2761 
Q 1319 2681 1319 2516 
Q 1319 2381 1436 2309 
Q 1553 2238 1856 2203 
L 2053 2175 
Q 2913 2066 3209 1816 
Q 3506 1566 3506 1031 
Q 3506 472 3093 190 
Q 2681 -91 1863 -91 
Q 1516 -91 1145 -36 
Q 775 19 384 128 
L 384 978 
Q 719 816 1070 734 
Q 1422 653 1784 653 
Q 2113 653 2278 743 
Q 2444 834 2444 1013 
Q 2444 1163 2330 1236 
Q 2216 1309 1875 1350 
L 1678 1375 
Q 931 1469 631 1722 
Q 331 1975 331 2491 
Q 331 3047 712 3315 
Q 1094 3584 1881 3584 
Q 2191 3584 2531 3537 
Q 2872 3491 3272 3391 
z
" transform="scale(0.015625)"/>
      </defs>
      <use xlink:href="#DejaVuSans-Bold-50"/>
      <use xlink:href="#DejaVuSans-Bold-65" transform="translate(73.291016 0)"/>
      <use xlink:href="#DejaVuSans-Bold-72" transform="translate(141.113281 0)"/>
      <use xlink:href="#DejaVuSans-Bold-63" transform="translate(190.429688 0)"/>
      <use xlink:href="#DejaVuSans-Bold-65" transform="translate(249.707031 0)"/>
      <use xlink:href="#DejaVuSans-Bold-6e" transform="translate(317.529297 0)"/>
      <use xlink:href="#DejaVuSans-Bold-74" transform="translate(388.720703 0)"/>
      <use xlink:href="#DejaVuSans-Bold-20" transform="translate(436.523438 0)"/>
      <use xlink:href="#DejaVuSans-Bold-6f" transform="translate(471.337891 0)"/>
      <use xlink:href="#DejaVuSans-Bold-66" transform="translate(540.039062 0)"/>
      <use xlink:href="#DejaVuSans-Bold-20" transform="translate(583.544922 0)"/>
      <use xlink:href="#DejaVuSans-Bold-67" transform="translate(618.359375 0)"/>
      <use xlink:href="#DejaVuSans-Bold-65" transform="translate(689.941406 0)"/>
      <use xlink:href="#DejaVuSans-Bold-6e" transform="translate(757.763672 0)"/>
      <use xlink:href="#DejaVuSans-Bold-65" transform="translate(828.955078 0)"/>
      <use xlink:href="#DejaVuSans-Bold-20" transform="translate(896.777344 0)"/>
      <use xlink:href="#DejaVuSans-Bold-70" transform="translate(931.591797 0)"/>
      <use xlink:href="#DejaVuSans-Bold-61" transform="translate(1003.173828 0)"/>
      <use xlink:href="#DejaVuSans-Bold-69" transform="translate(1070.654297 0)"/>
      <use xlink:href="#DejaVuSans-Bold-72" transform="translate(1104.931641 0)"/>
      <use xlink:href="#DejaVuSans-Bold-73" transform="translate(1154.248047 0)"/>
     </g>
    </g>
   </g>
   <g id="line2d_25">
    <path d="M 52.242325 151.647679 
L 58.736975 120.486532 
L 65.231625 101.950875 
L 71.726275 89.529034 
L 78.220925 80.938798 
L 84.715575 74.494742 
L 91.210225 69.468636 
L 97.704875 65.495171 
L 104.199525 62.585177 
L 110.694175 60.12326 
L 117.188825 57.995802 
L 123.683475 56.505147 
L 130.178125 54.797938 
L 136.672775 53.311097 
L 143.167425 52.213186 
L 149.662075 50.947488 
L 156.156725 50.095043 
L 162.651375 49.219685 
L 169.146025 48.484042 
L 175.640675 47.761416 
L 182.135325 47.108978 
L 188.629975 46.468465 
L 195.124625 45.888821 
L 201.619275 45.34332 
L 208.113925 44.809013 
L 214.608575 44.3264 
L 221.103225 43.906322 
L 227.597875 43.480398 
L 234.092525 43.066094 
L 240.587175 42.850361 
L 247.081825 42.519548 
L 253.576475 42.190113 
L 260.071125 42.002806 
L 266.565775 41.726945 
L 273.060425 41.458372 
L 279.555075 41.31493 
L 286.049725 41.09638 
L 292.544375 40.972036 
L 299.039025 40.783064 
L 305.533675 40.666428 
L 312.028325 40.504681 
L 318.522975 40.414635 
L 325.017625 40.27904 
L 331.512275 40.204056 
L 338.006925 40.142077 
L 344.501575 40.03731 
L 350.996225 39.980926 
L 357.490875 39.896594 
L 363.985525 39.856588 
L 370.480175 39.809221 
L 376.974825 39.749154 
L 383.469475 39.721161 
L 389.964125 39.693215 
L 396.458775 39.653004 
L 402.953425 39.6347 
L 409.448075 39.616733 
L 415.942725 39.602372 
L 422.437375 39.580046 
L 428.932025 39.570277 
L 435.426675 39.560963 
L 441.921325 39.553821 
L 448.415975 39.547611 
L 454.910625 39.5384 
L 461.405275 39.534655 
L 467.899925 39.531574 
L 474.394575 39.528786 
L 480.889225 39.523289 
L 487.383875 39.521642 
L 493.878525 39.519316 
L 500.373175 39.518476 
L 506.867825 39.517821 
L 513.362475 39.517336 
L 519.857125 39.516966 
L 526.351775 39.51669 
L 532.846425 39.516473 
L 539.341075 39.516316 
L 545.835725 39.5162 
L 552.330375 39.516121 
L 558.825025 39.516011 
L 565.319675 39.515966 
L 571.814325 39.515943 
L 578.308975 39.515925 
L 584.803625 39.51591 
L 591.298275 39.515903 
L 597.792925 39.515896 
L 604.287575 39.515891 
L 610.782225 39.51589 
L 617.276875 39.515888 
L 623.771525 39.515888 
L 630.266175 39.515887 
L 636.760825 39.515887 
L 643.255475 39.515887 
L 649.750125 39.515887 
L 656.244775 39.515887 
L 662.739425 39.515887 
L 669.234075 39.515887 
L 675.728725 39.515887 
L 682.223375 39.515887 
L 688.718025 39.515887 
L 695.212675 39.51475 
" clip-path="url(#p4bac286758)" style="fill: none; stroke: #1f77b4; stroke-width: 2; stroke-linecap: square"/>
   </g>
   <g id="line2d_26">
    <path d="M 52.242325 321.416898 
L 58.736975 268.055745 
L 65.231625 230.890017 
L 71.726275 205.426626 
L 78.220925 187.078211 
L 84.715575 172.840989 
L 91.210225 161.111564 
L 97.704875 150.995489 
L 104.199525 142.14334 
L 110.694175 134.324979 
L 117.188825 127.380093 
L 123.683475 121.181728 
L 130.178125 115.676696 
L 136.672775 110.676521 
L 143.167425 106.161399 
L 149.662075 102.064177 
L 156.156725 98.334985 
L 162.651375 94.926397 
L 169.146025 91.799436 
L 175.640675 88.922894 
L 182.135325 86.266416 
L 188.629975 83.804098 
L 195.124625 81.517042 
L 201.619275 79.38378 
L 208.113925 77.414449 
L 214.608575 75.557537 
L 221.103225 73.802792 
L 227.597875 72.151037 
L 234.092525 70.593791 
L 240.587175 69.12259 
L 247.081825 67.729628 
L 253.576475 66.408555 
L 260.071125 65.153686 
L 266.565775 63.958814 
L 273.060425 62.820594 
L 279.555075 61.734326 
L 286.049725 60.696029 
L 292.544375 59.702121 
L 299.039025 58.750548 
L 305.533675 57.839334 
L 312.028325 56.963693 
L 318.522975 56.123625 
L 325.017625 55.316031 
L 331.512275 54.539249 
L 338.006925 53.79176 
L 344.501575 53.072842 
L 350.996225 52.381171 
L 357.490875 51.715635 
L 363.985525 51.07546 
L 370.480175 50.473876 
L 376.974825 49.872594 
L 383.469475 49.313943 
L 389.964125 48.749342 
L 396.458775 48.231368 
L 402.953425 47.707882 
L 409.448075 47.228408 
L 415.942725 46.744059 
L 422.437375 46.300591 
L 428.932025 45.853315 
L 435.426675 45.444025 
L 441.921325 45.031598 
L 448.415975 44.654212 
L 454.910625 44.274579 
L 461.405275 43.928572 
L 467.899925 43.580723 
L 474.394575 43.264111 
L 480.889225 42.947497 
L 487.383875 42.660471 
L 493.878525 42.373547 
L 500.373175 42.114846 
L 506.867825 41.858051 
L 513.362475 41.626943 
L 519.857125 41.398613 
L 526.351775 41.194296 
L 532.846425 41.003776 
L 539.341075 40.817736 
L 545.835725 40.653982 
L 552.330375 40.495564 
L 558.825025 40.357776 
L 565.319675 40.2265 
L 571.814325 40.113904 
L 578.308975 40.008411 
L 584.803625 39.919768 
L 591.298275 39.838685 
L 597.792925 39.772875 
L 604.287575 39.714974 
L 610.782225 39.670085 
L 617.276875 39.632146 
L 623.771525 39.604096 
L 630.266175 39.581915 
L 636.760825 39.566332 
L 643.255475 39.554339 
L 649.750125 39.546704 
L 656.244775 39.540943 
L 662.739425 39.536554 
L 669.234075 39.532105 
L 675.728725 39.528161 
L 682.223375 39.524149 
L 688.718025 39.520428 
L 695.212675 39.51475 
" clip-path="url(#p4bac286758)" style="fill: none; stroke: #ff7f0e; stroke-width: 2; stroke-linecap: square"/>
   </g>
   <g id="line2d_27">
    <path d="M 52.242325 336.936327 
L 58.736975 292.755471 
L 65.231625 256.442433 
L 71.726275 226.686207 
L 78.220925 202.110272 
L 84.715575 181.892223 
L 91.210225 166.264539 
L 97.704875 153.943686 
L 104.199525 143.991439 
L 110.694175 135.843413 
L 117.188825 129.009288 
L 123.683475 123.169727 
L 130.178125 118.132887 
L 136.672775 113.639473 
L 143.167425 109.622479 
L 149.662075 105.993198 
L 156.156725 102.678979 
L 162.651375 99.635202 
L 169.146025 96.820767 
L 175.640675 94.209449 
L 182.135325 91.783731 
L 188.629975 89.504213 
L 195.124625 87.37591 
L 201.619275 85.363582 
L 208.113925 83.483611 
L 214.608575 81.69444 
L 221.103225 79.981675 
L 227.597875 78.358047 
L 234.092525 76.794674 
L 240.587175 75.314128 
L 247.081825 73.898192 
L 253.576475 72.532423 
L 260.071125 71.228096 
L 266.565775 69.972242 
L 273.060425 68.767056 
L 279.555075 67.600652 
L 286.049725 66.482541 
L 292.544375 65.400142 
L 299.039025 64.358485 
L 305.533675 63.351278 
L 312.028325 62.364224 
L 318.522975 61.420464 
L 325.017625 60.504129 
L 331.512275 59.613847 
L 338.006925 58.746787 
L 344.501575 57.90782 
L 350.996225 57.093431 
L 357.490875 56.303065 
L 363.985525 55.536022 
L 370.480175 54.804416 
L 376.974825 54.069148 
L 383.469475 53.382266 
L 389.964125 52.681643 
L 396.458775 52.032759 
L 402.953425 51.370778 
L 409.448075 50.759131 
L 415.942725 50.134577 
L 422.437375 49.553187 
L 428.932025 48.965361 
L 435.426675 48.422663 
L 441.921325 47.870586 
L 448.415975 47.36235 
L 454.910625 46.845843 
L 461.405275 46.370494 
L 467.899925 45.887573 
L 474.394575 45.444196 
L 480.889225 44.995085 
L 487.383875 44.583308 
L 493.878525 44.168634 
L 500.373175 43.789761 
L 506.867825 43.405532 
L 513.362475 43.059086 
L 519.857125 42.712527 
L 526.351775 42.399559 
L 532.846425 42.102589 
L 539.341075 41.8083 
L 545.835725 41.54477 
L 552.330375 41.285491 
L 558.825025 41.055782 
L 565.319675 40.83241 
L 571.814325 40.637216 
L 578.308975 40.450159 
L 584.803625 40.289063 
L 591.298275 40.138153 
L 597.792925 40.01111 
L 604.287575 39.895246 
L 610.782225 39.801495 
L 617.276875 39.720119 
L 623.771525 39.657721 
L 630.266175 39.607164 
L 636.760825 39.571773 
L 643.255475 39.546125 
L 649.750125 39.530736 
L 656.244775 39.521776 
L 662.739425 39.517762 
L 669.234075 39.516264 
L 675.728725 39.515932 
L 682.223375 39.51589 
L 688.718025 39.515887 
L 695.212675 39.51475 
" clip-path="url(#p4bac286758)" style="fill: none; stroke: #2ca02c; stroke-width: 2; stroke-linecap: square"/>
   </g>
   <g id="line2d_28">
    <path d="M 48.995 143.27875 
L 698.46 143.27875 
" clip-path="url(#p4bac286758)" style="fill: none; stroke-dasharray: 5.55,2.4; stroke-dashoffset: 0; stroke: #808080; stroke-opacity: 0.7; stroke-width: 1.5"/>
   </g>
   <g id="line2d_29">
    <path d="M 58.736975 385.39475 
L 58.736975 39.51475 
" clip-path="url(#p4bac286758)" style="fill: none; stroke-dasharray: 1.5,2.475; stroke-dashoffset: 0; stroke: #1f77b4; stroke-opacity: 0.6; stroke-width: 1.5"/>
   </g>
   <g id="line2d_30">
    <path d="M 104.199525 385.39475 
L 104.199525 39.51475 
" clip-path="url(#p4bac286758)" style="fill: none; stroke-dasharray: 1.5,2.475; stroke-dashoffset: 0; stroke: #ff7f0e; stroke-opacity: 0.6; stroke-width: 1.5"/>
   </g>
   <g id="line2d_31">
    <path d="M 110.694175 385.39475 
L 110.694175 39.51475 
" clip-path="url(#p4bac286758)" style="fill: none; stroke-dasharray: 1.5,2.475; stroke-dashoffset: 0; stroke: #2ca02c; stroke-opacity: 0.6; stroke-width: 1.5"/>
   </g>
   <g id="patch_3">
    <path d="M 48.995 385.39475 
L 48.995 39.51475 
" style="fill: none; stroke: #000000; stroke-width: 0.8; stroke-linejoin: miter; stroke-linecap: square"/>
   </g>
   <g id="patch_4">
    <path d="M 698.46 385.39475 
L 698.46 39.51475 
" style="fill: none; stroke: #000000; stroke-width: 0.8; stroke-linejoin: miter; stroke-linecap: square"/>
   </g>
   <g id="patch_5">
    <path d="M 48.995 385.39475 
L 698.46 385.39475 
" style="fill: none; stroke: #000000; stroke-width: 0.8; stroke-linejoin: miter; stroke-linecap: square"/>
   </g>
   <g id="patch_6">
    <path d="M 48.995 39.51475 
L 698.46 39.51475 
" style="fill: none; stroke: #000000; stroke-width: 0.8; stroke-linejoin: miter; stroke-linecap: square"/>
   </g>
   <g id="text_15">
    <!-- Cumulative Distribution of Correlation Coefficients -->
    <g transform="translate(173.205938 17.837812) scale(0.14 -0.14)">
     <defs>
      <path id="DejaVuSans-Bold-6d" d="M 3781 2919 
Q 3994 3244 4286 3414 
Q 4578 3584 4928 3584 
Q 5531 3584 5847 3212 
Q 6163 2841 6163 2131 
L 6163 0 
L 5038 0 
L 5038 1825 
Q 5041 1866 5042 1909 
Q 5044 1953 5044 2034 
Q 5044 2406 4934 2573 
Q 4825 2741 4581 2741 
Q 4263 2741 4089 2478 
Q 3916 2216 3909 1719 
L 3909 0 
L 2784 0 
L 2784 1825 
Q 2784 2406 2684 2573 
Q 2584 2741 2328 2741 
Q 2006 2741 1831 2477 
Q 1656 2213 1656 1722 
L 1656 0 
L 531 0 
L 531 3500 
L 1656 3500 
L 1656 2988 
Q 1863 3284 2130 3434 
Q 2397 3584 2719 3584 
Q 3081 3584 3359 3409 
Q 3638 3234 3781 2919 
z
" transform="scale(0.015625)"/>
      <path id="DejaVuSans-Bold-76" d="M 97 3500 
L 1216 3500 
L 2088 1081 
L 2956 3500 
L 4078 3500 
L 2700 0 
L 1472 0 
L 97 3500 
z
" transform="scale(0.015625)"/>
      <path id="DejaVuSans-Bold-44" d="M 1791 3756 
L 1791 909 
L 2222 909 
Q 2959 909 3348 1275 
Q 3738 1641 3738 2338 
Q 3738 3031 3350 3393 
Q 2963 3756 2222 3756 
L 1791 3756 
z
M 588 4666 
L 1856 4666 
Q 2919 4666 3439 4514 
Q 3959 4363 4331 4000 
Q 4659 3684 4818 3271 
Q 4978 2859 4978 2338 
Q 4978 1809 4818 1395 
Q 4659 981 4331 666 
Q 3956 303 3431 151 
Q 2906 0 1856 0 
L 588 0 
L 588 4666 
z
" transform="scale(0.015625)"/>
      <path id="DejaVuSans-Bold-62" d="M 2400 722 
Q 2759 722 2948 984 
Q 3138 1247 3138 1747 
Q 3138 2247 2948 2509 
Q 2759 2772 2400 2772 
Q 2041 2772 1848 2508 
Q 1656 2244 1656 1747 
Q 1656 1250 1848 986 
Q 2041 722 2400 722 
z
M 1656 2988 
Q 1888 3294 2169 3439 
Q 2450 3584 2816 3584 
Q 3463 3584 3878 3070 
Q 4294 2556 4294 1747 
Q 4294 938 3878 423 
Q 3463 -91 2816 -91 
Q 2450 -91 2169 54 
Q 1888 200 1656 506 
L 1656 0 
L 538 0 
L 538 4863 
L 1656 4863 
L 1656 2988 
z
" transform="scale(0.015625)"/>
     </defs>
     <use xlink:href="#DejaVuSans-Bold-43"/>
     <use xlink:href="#DejaVuSans-Bold-75" transform="translate(73.388672 0)"/>
     <use xlink:href="#DejaVuSans-Bold-6d" transform="translate(144.580078 0)"/>
     <use xlink:href="#DejaVuSans-Bold-75" transform="translate(248.779297 0)"/>
     <use xlink:href="#DejaVuSans-Bold-6c" transform="translate(319.970703 0)"/>
     <use xlink:href="#DejaVuSans-Bold-61" transform="translate(354.248047 0)"/>
     <use xlink:href="#DejaVuSans-Bold-74" transform="translate(421.728516 0)"/>
     <use xlink:href="#DejaVuSans-Bold-69" transform="translate(469.53125 0)"/>
     <use xlink:href="#DejaVuSans-Bold-76" transform="translate(503.808594 0)"/>
     <use xlink:href="#DejaVuSans-Bold-65" transform="translate(568.994141 0)"/>
     <use xlink:href="#DejaVuSans-Bold-20" transform="translate(636.816406 0)"/>
     <use xlink:href="#DejaVuSans-Bold-44" transform="translate(671.630859 0)"/>
     <use xlink:href="#DejaVuSans-Bold-69" transform="translate(754.638672 0)"/>
     <use xlink:href="#DejaVuSans-Bold-73" transform="translate(788.916016 0)"/>
     <use xlink:href="#DejaVuSans-Bold-74" transform="translate(848.4375 0)"/>
     <use xlink:href="#DejaVuSans-Bold-72" transform="translate(896.240234 0)"/>
     <use xlink:href="#DejaVuSans-Bold-69" transform="translate(945.556641 0)"/>
     <use xlink:href="#DejaVuSans-Bold-62" transform="translate(979.833984 0)"/>
     <use xlink:href="#DejaVuSans-Bold-75" transform="translate(1051.416016 0)"/>
     <use xlink:href="#DejaVuSans-Bold-74" transform="translate(1122.607422 0)"/>
     <use xlink:href="#DejaVuSans-Bold-69" transform="translate(1170.410156 0)"/>
     <use xlink:href="#DejaVuSans-Bold-6f" transform="translate(1204.6875 0)"/>
     <use xlink:href="#DejaVuSans-Bold-6e" transform="translate(1273.388672 0)"/>
     <use xlink:href="#DejaVuSans-Bold-20" transform="translate(1344.580078 0)"/>
     <use xlink:href="#DejaVuSans-Bold-6f" transform="translate(1379.394531 0)"/>
     <use xlink:href="#DejaVuSans-Bold-66" transform="translate(1448.095703 0)"/>
     <use xlink:href="#DejaVuSans-Bold-20" transform="translate(1491.601562 0)"/>
     <use xlink:href="#DejaVuSans-Bold-43" transform="translate(1526.416016 0)"/>
     <use xlink:href="#DejaVuSans-Bold-6f" transform="translate(1599.804688 0)"/>
     <use xlink:href="#DejaVuSans-Bold-72" transform="translate(1668.505859 0)"/>
     <use xlink:href="#DejaVuSans-Bold-72" transform="translate(1717.822266 0)"/>
     <use xlink:href="#DejaVuSans-Bold-65" transform="translate(1767.138672 0)"/>
     <use xlink:href="#DejaVuSans-Bold-6c" transform="translate(1834.960938 0)"/>
     <use xlink:href="#DejaVuSans-Bold-61" transform="translate(1869.238281 0)"/>
     <use xlink:href="#DejaVuSans-Bold-74" transform="translate(1936.71875 0)"/>
     <use xlink:href="#DejaVuSans-Bold-69" transform="translate(1984.521484 0)"/>
     <use xlink:href="#DejaVuSans-Bold-6f" transform="translate(2018.798828 0)"/>
     <use xlink:href="#DejaVuSans-Bold-6e" transform="translate(2087.5 0)"/>
     <use xlink:href="#DejaVuSans-Bold-20" transform="translate(2158.691406 0)"/>
     <use xlink:href="#DejaVuSans-Bold-43" transform="translate(2193.505859 0)"/>
     <use xlink:href="#DejaVuSans-Bold-6f" transform="translate(2266.894531 0)"/>
     <use xlink:href="#DejaVuSans-Bold-65" transform="translate(2335.595703 0)"/>
     <use xlink:href="#DejaVuSans-Bold-66" transform="translate(2403.417969 0)"/>
     <use xlink:href="#DejaVuSans-Bold-66" transform="translate(2446.923828 0)"/>
     <use xlink:href="#DejaVuSans-Bold-69" transform="translate(2490.429688 0)"/>
     <use xlink:href="#DejaVuSans-Bold-63" transform="translate(2524.707031 0)"/>
     <use xlink:href="#DejaVuSans-Bold-69" transform="translate(2583.984375 0)"/>
     <use xlink:href="#DejaVuSans-Bold-65" transform="translate(2618.261719 0)"/>
     <use xlink:href="#DejaVuSans-Bold-6e" transform="translate(2686.083984 0)"/>
     <use xlink:href="#DejaVuSans-Bold-74" transform="translate(2757.275391 0)"/>
     <use xlink:href="#DejaVuSans-Bold-73" transform="translate(2805.078125 0)"/>
    </g>
    <!-- Processed: 1,420,258,456 gene pairs -->
    <g transform="translate(227.314844 33.51475) scale(0.14 -0.14)">
     <defs>
      <path id="DejaVuSans-Bold-64" d="M 2919 2988 
L 2919 4863 
L 4044 4863 
L 4044 0 
L 2919 0 
L 2919 506 
Q 2688 197 2409 53 
Q 2131 -91 1766 -91 
Q 1119 -91 703 423 
Q 288 938 288 1747 
Q 288 2556 703 3070 
Q 1119 3584 1766 3584 
Q 2128 3584 2408 3439 
Q 2688 3294 2919 2988 
z
M 2181 722 
Q 2541 722 2730 984 
Q 2919 1247 2919 1747 
Q 2919 2247 2730 2509 
Q 2541 2772 2181 2772 
Q 1825 2772 1636 2509 
Q 1447 2247 1447 1747 
Q 1447 1247 1636 984 
Q 1825 722 2181 722 
z
" transform="scale(0.015625)"/>
      <path id="DejaVuSans-Bold-3a" d="M 716 3500 
L 1844 3500 
L 1844 2291 
L 716 2291 
L 716 3500 
z
M 716 1209 
L 1844 1209 
L 1844 0 
L 716 0 
L 716 1209 
z
" transform="scale(0.015625)"/>
      <path id="DejaVuSans-Bold-31" d="M 750 831 
L 1813 831 
L 1813 3847 
L 722 3622 
L 722 4441 
L 1806 4666 
L 2950 4666 
L 2950 831 
L 4013 831 
L 4013 0 
L 750 0 
L 750 831 
z
" transform="scale(0.015625)"/>
      <path id="DejaVuSans-Bold-2c" d="M 653 1209 
L 1778 1209 
L 1778 256 
L 1006 -909 
L 341 -909 
L 653 256 
L 653 1209 
z
" transform="scale(0.015625)"/>
      <path id="DejaVuSans-Bold-34" d="M 2356 3675 
L 1038 1722 
L 2356 1722 
L 2356 3675 
z
M 2156 4666 
L 3494 4666 
L 3494 1722 
L 4159 1722 
L 4159 850 
L 3494 850 
L 3494 0 
L 2356 0 
L 2356 850 
L 288 850 
L 288 1881 
L 2156 4666 
z
" transform="scale(0.015625)"/>
      <path id="DejaVuSans-Bold-32" d="M 1844 884 
L 3897 884 
L 3897 0 
L 506 0 
L 506 884 
L 2209 2388 
Q 2438 2594 2547 2791 
Q 2656 2988 2656 3200 
Q 2656 3528 2436 3728 
Q 2216 3928 1850 3928 
Q 1569 3928 1234 3808 
Q 900 3688 519 3450 
L 519 4475 
Q 925 4609 1322 4679 
Q 1719 4750 2100 4750 
Q 2938 4750 3402 4381 
Q 3866 4013 3866 3353 
Q 3866 2972 3669 2642 
Q 3472 2313 2841 1759 
L 1844 884 
z
" transform="scale(0.015625)"/>
      <path id="DejaVuSans-Bold-30" d="M 2944 2338 
Q 2944 3213 2780 3570 
Q 2616 3928 2228 3928 
Q 1841 3928 1675 3570 
Q 1509 3213 1509 2338 
Q 1509 1453 1675 1090 
Q 1841 728 2228 728 
Q 2613 728 2778 1090 
Q 2944 1453 2944 2338 
z
M 4147 2328 
Q 4147 1169 3647 539 
Q 3147 -91 2228 -91 
Q 1306 -91 806 539 
Q 306 1169 306 2328 
Q 306 3491 806 4120 
Q 1306 4750 2228 4750 
Q 3147 4750 3647 4120 
Q 4147 3491 4147 2328 
z
" transform="scale(0.015625)"/>
      <path id="DejaVuSans-Bold-35" d="M 678 4666 
L 3669 4666 
L 3669 3781 
L 1638 3781 
L 1638 3059 
Q 1775 3097 1914 3117 
Q 2053 3138 2203 3138 
Q 3056 3138 3531 2711 
Q 4006 2284 4006 1522 
Q 4006 766 3489 337 
Q 2972 -91 2053 -91 
Q 1656 -91 1267 -14 
Q 878 63 494 219 
L 494 1166 
Q 875 947 1217 837 
Q 1559 728 1863 728 
Q 2300 728 2551 942 
Q 2803 1156 2803 1522 
Q 2803 1891 2551 2103 
Q 2300 2316 1863 2316 
Q 1603 2316 1309 2248 
Q 1016 2181 678 2041 
L 678 4666 
z
" transform="scale(0.015625)"/>
      <path id="DejaVuSans-Bold-38" d="M 2228 2088 
Q 1891 2088 1709 1903 
Q 1528 1719 1528 1375 
Q 1528 1031 1709 848 
Q 1891 666 2228 666 
Q 2563 666 2741 848 
Q 2919 1031 2919 1375 
Q 2919 1722 2741 1905 
Q 2563 2088 2228 2088 
z
M 1350 2484 
Q 925 2613 709 2878 
Q 494 3144 494 3541 
Q 494 4131 934 4440 
Q 1375 4750 2228 4750 
Q 3075 4750 3515 4442 
Q 3956 4134 3956 3541 
Q 3956 3144 3739 2878 
Q 3522 2613 3097 2484 
Q 3572 2353 3814 2058 
Q 4056 1763 4056 1313 
Q 4056 619 3595 264 
Q 3134 -91 2228 -91 
Q 1319 -91 855 264 
Q 391 619 391 1313 
Q 391 1763 633 2058 
Q 875 2353 1350 2484 
z
M 1631 3419 
Q 1631 3141 1786 2991 
Q 1941 2841 2228 2841 
Q 2509 2841 2662 2991 
Q 2816 3141 2816 3419 
Q 2816 3697 2662 3845 
Q 2509 3994 2228 3994 
Q 1941 3994 1786 3844 
Q 1631 3694 1631 3419 
z
" transform="scale(0.015625)"/>
      <path id="DejaVuSans-Bold-36" d="M 2316 2303 
Q 2000 2303 1842 2098 
Q 1684 1894 1684 1484 
Q 1684 1075 1842 870 
Q 2000 666 2316 666 
Q 2634 666 2792 870 
Q 2950 1075 2950 1484 
Q 2950 1894 2792 2098 
Q 2634 2303 2316 2303 
z
M 3803 4544 
L 3803 3681 
Q 3506 3822 3243 3889 
Q 2981 3956 2731 3956 
Q 2194 3956 1894 3657 
Q 1594 3359 1544 2772 
Q 1750 2925 1990 3001 
Q 2231 3078 2516 3078 
Q 3231 3078 3670 2659 
Q 4109 2241 4109 1563 
Q 4109 813 3618 361 
Q 3128 -91 2303 -91 
Q 1394 -91 895 523 
Q 397 1138 397 2266 
Q 397 3422 980 4083 
Q 1563 4744 2578 4744 
Q 2900 4744 3203 4694 
Q 3506 4644 3803 4544 
z
" transform="scale(0.015625)"/>
     </defs>
     <use xlink:href="#DejaVuSans-Bold-50"/>
     <use xlink:href="#DejaVuSans-Bold-72" transform="translate(73.291016 0)"/>
     <use xlink:href="#DejaVuSans-Bold-6f" transform="translate(122.607422 0)"/>
     <use xlink:href="#DejaVuSans-Bold-63" transform="translate(191.308594 0)"/>
     <use xlink:href="#DejaVuSans-Bold-65" transform="translate(250.585938 0)"/>
     <use xlink:href="#DejaVuSans-Bold-73" transform="translate(318.408203 0)"/>
     <use xlink:href="#DejaVuSans-Bold-73" transform="translate(377.929688 0)"/>
     <use xlink:href="#DejaVuSans-Bold-65" transform="translate(437.451172 0)"/>
     <use xlink:href="#DejaVuSans-Bold-64" transform="translate(505.273438 0)"/>
     <use xlink:href="#DejaVuSans-Bold-3a" transform="translate(576.855469 0)"/>
     <use xlink:href="#DejaVuSans-Bold-20" transform="translate(616.845703 0)"/>
     <use xlink:href="#DejaVuSans-Bold-31" transform="translate(651.660156 0)"/>
     <use xlink:href="#DejaVuSans-Bold-2c" transform="translate(721.240234 0)"/>
     <use xlink:href="#DejaVuSans-Bold-34" transform="translate(759.228516 0)"/>
     <use xlink:href="#DejaVuSans-Bold-32" transform="translate(828.808594 0)"/>
     <use xlink:href="#DejaVuSans-Bold-30" transform="translate(898.388672 0)"/>
     <use xlink:href="#DejaVuSans-Bold-2c" transform="translate(967.96875 0)"/>
     <use xlink:href="#DejaVuSans-Bold-32" transform="translate(1005.957031 0)"/>
     <use xlink:href="#DejaVuSans-Bold-35" transform="translate(1075.537109 0)"/>
     <use xlink:href="#DejaVuSans-Bold-38" transform="translate(1145.117188 0)"/>
     <use xlink:href="#DejaVuSans-Bold-2c" transform="translate(1214.697266 0)"/>
     <use xlink:href="#DejaVuSans-Bold-34" transform="translate(1252.685547 0)"/>
     <use xlink:href="#DejaVuSans-Bold-35" transform="translate(1322.265625 0)"/>
     <use xlink:href="#DejaVuSans-Bold-36" transform="translate(1391.845703 0)"/>
     <use xlink:href="#DejaVuSans-Bold-20" transform="translate(1461.425781 0)"/>
     <use xlink:href="#DejaVuSans-Bold-67" transform="translate(1496.240234 0)"/>
     <use xlink:href="#DejaVuSans-Bold-65" transform="translate(1567.822266 0)"/>
     <use xlink:href="#DejaVuSans-Bold-6e" transform="translate(1635.644531 0)"/>
     <use xlink:href="#DejaVuSans-Bold-65" transform="translate(1706.835938 0)"/>
     <use xlink:href="#DejaVuSans-Bold-20" transform="translate(1774.658203 0)"/>
     <use xlink:href="#DejaVuSans-Bold-70" transform="translate(1809.472656 0)"/>
     <use xlink:href="#DejaVuSans-Bold-61" transform="translate(1881.054688 0)"/>
     <use xlink:href="#DejaVuSans-Bold-69" transform="translate(1948.535156 0)"/>
     <use xlink:href="#DejaVuSans-Bold-72" transform="translate(1982.8125 0)"/>
     <use xlink:href="#DejaVuSans-Bold-73" transform="translate(2032.128906 0)"/>
    </g>
   </g>
   <g id="legend_1">
    <g id="patch_7">
     <path d="M 577.425625 106.22725 
L 691.46 106.22725 
Q 693.46 106.22725 693.46 104.22725 
L 693.46 46.51475 
Q 693.46 44.51475 691.46 44.51475 
L 577.425625 44.51475 
Q 575.425625 44.51475 575.425625 46.51475 
L 575.425625 104.22725 
Q 575.425625 106.22725 577.425625 106.22725 
z
" style="fill: #ffffff; opacity: 0.8; stroke: #cccccc; stroke-linejoin: miter"/>
    </g>
    <g id="line2d_32">
     <path d="M 579.425625 52.613187 
L 589.425625 52.613187 
L 599.425625 52.613187 
" style="fill: none; stroke: #1f77b4; stroke-width: 2; stroke-linecap: square"/>
    </g>
    <g id="text_16">
     <!-- CCC -->
     <g transform="translate(607.425625 56.113187) scale(0.1 -0.1)">
      <defs>
       <path id="DejaVuSans-43" d="M 4122 4306 
L 4122 3641 
Q 3803 3938 3442 4084 
Q 3081 4231 2675 4231 
Q 1875 4231 1450 3742 
Q 1025 3253 1025 2328 
Q 1025 1406 1450 917 
Q 1875 428 2675 428 
Q 3081 428 3442 575 
Q 3803 722 4122 1019 
L 4122 359 
Q 3791 134 3420 21 
Q 3050 -91 2638 -91 
Q 1578 -91 968 557 
Q 359 1206 359 2328 
Q 359 3453 968 4101 
Q 1578 4750 2638 4750 
Q 3056 4750 3426 4639 
Q 3797 4528 4122 4306 
z
" transform="scale(0.015625)"/>
      </defs>
      <use xlink:href="#DejaVuSans-43"/>
      <use xlink:href="#DejaVuSans-43" transform="translate(69.824219 0)"/>
      <use xlink:href="#DejaVuSans-43" transform="translate(139.648438 0)"/>
     </g>
    </g>
    <g id="line2d_33">
     <path d="M 579.425625 67.291313 
L 589.425625 67.291313 
L 599.425625 67.291313 
" style="fill: none; stroke: #ff7f0e; stroke-width: 2; stroke-linecap: square"/>
    </g>
    <g id="text_17">
     <!-- Pearson -->
     <g transform="translate(607.425625 70.791313) scale(0.1 -0.1)">
      <defs>
       <path id="DejaVuSans-50" d="M 1259 4147 
L 1259 2394 
L 2053 2394 
Q 2494 2394 2734 2622 
Q 2975 2850 2975 3272 
Q 2975 3691 2734 3919 
Q 2494 4147 2053 4147 
L 1259 4147 
z
M 628 4666 
L 2053 4666 
Q 2838 4666 3239 4311 
Q 3641 3956 3641 3272 
Q 3641 2581 3239 2228 
Q 2838 1875 2053 1875 
L 1259 1875 
L 1259 0 
L 628 0 
L 628 4666 
z
" transform="scale(0.015625)"/>
       <path id="DejaVuSans-65" d="M 3597 1894 
L 3597 1613 
L 953 1613 
Q 991 1019 1311 708 
Q 1631 397 2203 397 
Q 2534 397 2845 478 
Q 3156 559 3463 722 
L 3463 178 
Q 3153 47 2828 -22 
Q 2503 -91 2169 -91 
Q 1331 -91 842 396 
Q 353 884 353 1716 
Q 353 2575 817 3079 
Q 1281 3584 2069 3584 
Q 2775 3584 3186 3129 
Q 3597 2675 3597 1894 
z
M 3022 2063 
Q 3016 2534 2758 2815 
Q 2500 3097 2075 3097 
Q 1594 3097 1305 2825 
Q 1016 2553 972 2059 
L 3022 2063 
z
" transform="scale(0.015625)"/>
       <path id="DejaVuSans-61" d="M 2194 1759 
Q 1497 1759 1228 1600 
Q 959 1441 959 1056 
Q 959 750 1161 570 
Q 1363 391 1709 391 
Q 2188 391 2477 730 
Q 2766 1069 2766 1631 
L 2766 1759 
L 2194 1759 
z
M 3341 1997 
L 3341 0 
L 2766 0 
L 2766 531 
Q 2569 213 2275 61 
Q 1981 -91 1556 -91 
Q 1019 -91 701 211 
Q 384 513 384 1019 
Q 384 1609 779 1909 
Q 1175 2209 1959 2209 
L 2766 2209 
L 2766 2266 
Q 2766 2663 2505 2880 
Q 2244 3097 1772 3097 
Q 1472 3097 1187 3025 
Q 903 2953 641 2809 
L 641 3341 
Q 956 3463 1253 3523 
Q 1550 3584 1831 3584 
Q 2591 3584 2966 3190 
Q 3341 2797 3341 1997 
z
" transform="scale(0.015625)"/>
       <path id="DejaVuSans-72" d="M 2631 2963 
Q 2534 3019 2420 3045 
Q 2306 3072 2169 3072 
Q 1681 3072 1420 2755 
Q 1159 2438 1159 1844 
L 1159 0 
L 581 0 
L 581 3500 
L 1159 3500 
L 1159 2956 
Q 1341 3275 1631 3429 
Q 1922 3584 2338 3584 
Q 2397 3584 2469 3576 
Q 2541 3569 2628 3553 
L 2631 2963 
z
" transform="scale(0.015625)"/>
       <path id="DejaVuSans-73" d="M 2834 3397 
L 2834 2853 
Q 2591 2978 2328 3040 
Q 2066 3103 1784 3103 
Q 1356 3103 1142 2972 
Q 928 2841 928 2578 
Q 928 2378 1081 2264 
Q 1234 2150 1697 2047 
L 1894 2003 
Q 2506 1872 2764 1633 
Q 3022 1394 3022 966 
Q 3022 478 2636 193 
Q 2250 -91 1575 -91 
Q 1294 -91 989 -36 
Q 684 19 347 128 
L 347 722 
Q 666 556 975 473 
Q 1284 391 1588 391 
Q 1994 391 2212 530 
Q 2431 669 2431 922 
Q 2431 1156 2273 1281 
Q 2116 1406 1581 1522 
L 1381 1569 
Q 847 1681 609 1914 
Q 372 2147 372 2553 
Q 372 3047 722 3315 
Q 1072 3584 1716 3584 
Q 2034 3584 2315 3537 
Q 2597 3491 2834 3397 
z
" transform="scale(0.015625)"/>
       <path id="DejaVuSans-6f" d="M 1959 3097 
Q 1497 3097 1228 2736 
Q 959 2375 959 1747 
Q 959 1119 1226 758 
Q 1494 397 1959 397 
Q 2419 397 2687 759 
Q 2956 1122 2956 1747 
Q 2956 2369 2687 2733 
Q 2419 3097 1959 3097 
z
M 1959 3584 
Q 2709 3584 3137 3096 
Q 3566 2609 3566 1747 
Q 3566 888 3137 398 
Q 2709 -91 1959 -91 
Q 1206 -91 779 398 
Q 353 888 353 1747 
Q 353 2609 779 3096 
Q 1206 3584 1959 3584 
z
" transform="scale(0.015625)"/>
       <path id="DejaVuSans-6e" d="M 3513 2113 
L 3513 0 
L 2938 0 
L 2938 2094 
Q 2938 2591 2744 2837 
Q 2550 3084 2163 3084 
Q 1697 3084 1428 2787 
Q 1159 2491 1159 1978 
L 1159 0 
L 581 0 
L 581 3500 
L 1159 3500 
L 1159 2956 
Q 1366 3272 1645 3428 
Q 1925 3584 2291 3584 
Q 2894 3584 3203 3211 
Q 3513 2838 3513 2113 
z
" transform="scale(0.015625)"/>
      </defs>
      <use xlink:href="#DejaVuSans-50"/>
      <use xlink:href="#DejaVuSans-65" transform="translate(56.677734 0)"/>
      <use xlink:href="#DejaVuSans-61" transform="translate(118.201172 0)"/>
      <use xlink:href="#DejaVuSans-72" transform="translate(179.480469 0)"/>
      <use xlink:href="#DejaVuSans-73" transform="translate(220.59375 0)"/>
      <use xlink:href="#DejaVuSans-6f" transform="translate(272.693359 0)"/>
      <use xlink:href="#DejaVuSans-6e" transform="translate(333.875 0)"/>
     </g>
    </g>
    <g id="line2d_34">
     <path d="M 579.425625 81.969437 
L 589.425625 81.969437 
L 599.425625 81.969437 
" style="fill: none; stroke: #2ca02c; stroke-width: 2; stroke-linecap: square"/>
    </g>
    <g id="text_18">
     <!-- Spearman -->
     <g transform="translate(607.425625 85.469437) scale(0.1 -0.1)">
      <defs>
       <path id="DejaVuSans-53" d="M 3425 4513 
L 3425 3897 
Q 3066 4069 2747 4153 
Q 2428 4238 2131 4238 
Q 1616 4238 1336 4038 
Q 1056 3838 1056 3469 
Q 1056 3159 1242 3001 
Q 1428 2844 1947 2747 
L 2328 2669 
Q 3034 2534 3370 2195 
Q 3706 1856 3706 1288 
Q 3706 609 3251 259 
Q 2797 -91 1919 -91 
Q 1588 -91 1214 -16 
Q 841 59 441 206 
L 441 856 
Q 825 641 1194 531 
Q 1563 422 1919 422 
Q 2459 422 2753 634 
Q 3047 847 3047 1241 
Q 3047 1584 2836 1778 
Q 2625 1972 2144 2069 
L 1759 2144 
Q 1053 2284 737 2584 
Q 422 2884 422 3419 
Q 422 4038 858 4394 
Q 1294 4750 2059 4750 
Q 2388 4750 2728 4690 
Q 3069 4631 3425 4513 
z
" transform="scale(0.015625)"/>
       <path id="DejaVuSans-70" d="M 1159 525 
L 1159 -1331 
L 581 -1331 
L 581 3500 
L 1159 3500 
L 1159 2969 
Q 1341 3281 1617 3432 
Q 1894 3584 2278 3584 
Q 2916 3584 3314 3078 
Q 3713 2572 3713 1747 
Q 3713 922 3314 415 
Q 2916 -91 2278 -91 
Q 1894 -91 1617 61 
Q 1341 213 1159 525 
z
M 3116 1747 
Q 3116 2381 2855 2742 
Q 2594 3103 2138 3103 
Q 1681 3103 1420 2742 
Q 1159 2381 1159 1747 
Q 1159 1113 1420 752 
Q 1681 391 2138 391 
Q 2594 391 2855 752 
Q 3116 1113 3116 1747 
z
" transform="scale(0.015625)"/>
       <path id="DejaVuSans-6d" d="M 3328 2828 
Q 3544 3216 3844 3400 
Q 4144 3584 4550 3584 
Q 5097 3584 5394 3201 
Q 5691 2819 5691 2113 
L 5691 0 
L 5113 0 
L 5113 2094 
Q 5113 2597 4934 2840 
Q 4756 3084 4391 3084 
Q 3944 3084 3684 2787 
Q 3425 2491 3425 1978 
L 3425 0 
L 2847 0 
L 2847 2094 
Q 2847 2600 2669 2842 
Q 2491 3084 2119 3084 
Q 1678 3084 1418 2786 
Q 1159 2488 1159 1978 
L 1159 0 
L 581 0 
L 581 3500 
L 1159 3500 
L 1159 2956 
Q 1356 3278 1631 3431 
Q 1906 3584 2284 3584 
Q 2666 3584 2933 3390 
Q 3200 3197 3328 2828 
z
" transform="scale(0.015625)"/>
      </defs>
      <use xlink:href="#DejaVuSans-53"/>
      <use xlink:href="#DejaVuSans-70" transform="translate(63.476562 0)"/>
      <use xlink:href="#DejaVuSans-65" transform="translate(126.953125 0)"/>
      <use xlink:href="#DejaVuSans-61" transform="translate(188.476562 0)"/>
      <use xlink:href="#DejaVuSans-72" transform="translate(249.755859 0)"/>
      <use xlink:href="#DejaVuSans-6d" transform="translate(289.119141 0)"/>
      <use xlink:href="#DejaVuSans-61" transform="translate(386.53125 0)"/>
      <use xlink:href="#DejaVuSans-6e" transform="translate(447.810547 0)"/>
     </g>
    </g>
    <g id="line2d_35">
     <path d="M 579.425625 96.647562 
L 589.425625 96.647562 
L 599.425625 96.647562 
" style="fill: none; stroke-dasharray: 5.55,2.4; stroke-dashoffset: 0; stroke: #808080; stroke-opacity: 0.7; stroke-width: 1.5"/>
    </g>
    <g id="text_19">
     <!-- 70.0% threshold -->
     <g transform="translate(607.425625 100.147562) scale(0.1 -0.1)">
      <defs>
       <path id="DejaVuSans-37" d="M 525 4666 
L 3525 4666 
L 3525 4397 
L 1831 0 
L 1172 0 
L 2766 4134 
L 525 4134 
L 525 4666 
z
" transform="scale(0.015625)"/>
       <path id="DejaVuSans-25" d="M 4653 2053 
Q 4381 2053 4226 1822 
Q 4072 1591 4072 1178 
Q 4072 772 4226 539 
Q 4381 306 4653 306 
Q 4919 306 5073 539 
Q 5228 772 5228 1178 
Q 5228 1588 5073 1820 
Q 4919 2053 4653 2053 
z
M 4653 2450 
Q 5147 2450 5437 2106 
Q 5728 1763 5728 1178 
Q 5728 594 5436 251 
Q 5144 -91 4653 -91 
Q 4153 -91 3862 251 
Q 3572 594 3572 1178 
Q 3572 1766 3864 2108 
Q 4156 2450 4653 2450 
z
M 1428 4353 
Q 1159 4353 1004 4120 
Q 850 3888 850 3481 
Q 850 3069 1003 2837 
Q 1156 2606 1428 2606 
Q 1700 2606 1854 2837 
Q 2009 3069 2009 3481 
Q 2009 3884 1853 4118 
Q 1697 4353 1428 4353 
z
M 4250 4750 
L 4750 4750 
L 1831 -91 
L 1331 -91 
L 4250 4750 
z
M 1428 4750 
Q 1922 4750 2215 4408 
Q 2509 4066 2509 3481 
Q 2509 2891 2217 2550 
Q 1925 2209 1428 2209 
Q 931 2209 642 2551 
Q 353 2894 353 3481 
Q 353 4063 643 4406 
Q 934 4750 1428 4750 
z
" transform="scale(0.015625)"/>
       <path id="DejaVuSans-20" transform="scale(0.015625)"/>
       <path id="DejaVuSans-74" d="M 1172 4494 
L 1172 3500 
L 2356 3500 
L 2356 3053 
L 1172 3053 
L 1172 1153 
Q 1172 725 1289 603 
Q 1406 481 1766 481 
L 2356 481 
L 2356 0 
L 1766 0 
Q 1100 0 847 248 
Q 594 497 594 1153 
L 594 3053 
L 172 3053 
L 172 3500 
L 594 3500 
L 594 4494 
L 1172 4494 
z
" transform="scale(0.015625)"/>
       <path id="DejaVuSans-68" d="M 3513 2113 
L 3513 0 
L 2938 0 
L 2938 2094 
Q 2938 2591 2744 2837 
Q 2550 3084 2163 3084 
Q 1697 3084 1428 2787 
Q 1159 2491 1159 1978 
L 1159 0 
L 581 0 
L 581 4863 
L 1159 4863 
L 1159 2956 
Q 1366 3272 1645 3428 
Q 1925 3584 2291 3584 
Q 2894 3584 3203 3211 
Q 3513 2838 3513 2113 
z
" transform="scale(0.015625)"/>
       <path id="DejaVuSans-6c" d="M 603 4863 
L 1178 4863 
L 1178 0 
L 603 0 
L 603 4863 
z
" transform="scale(0.015625)"/>
       <path id="DejaVuSans-64" d="M 2906 2969 
L 2906 4863 
L 3481 4863 
L 3481 0 
L 2906 0 
L 2906 525 
Q 2725 213 2448 61 
Q 2172 -91 1784 -91 
Q 1150 -91 751 415 
Q 353 922 353 1747 
Q 353 2572 751 3078 
Q 1150 3584 1784 3584 
Q 2172 3584 2448 3432 
Q 2725 3281 2906 2969 
z
M 947 1747 
Q 947 1113 1208 752 
Q 1469 391 1925 391 
Q 2381 391 2643 752 
Q 2906 1113 2906 1747 
Q 2906 2381 2643 2742 
Q 2381 3103 1925 3103 
Q 1469 3103 1208 2742 
Q 947 2381 947 1747 
z
" transform="scale(0.015625)"/>
      </defs>
      <use xlink:href="#DejaVuSans-37"/>
      <use xlink:href="#DejaVuSans-30" transform="translate(63.623047 0)"/>
      <use xlink:href="#DejaVuSans-2e" transform="translate(127.246094 0)"/>
      <use xlink:href="#DejaVuSans-30" transform="translate(159.033203 0)"/>
      <use xlink:href="#DejaVuSans-25" transform="translate(222.65625 0)"/>
      <use xlink:href="#DejaVuSans-20" transform="translate(317.675781 0)"/>
      <use xlink:href="#DejaVuSans-74" transform="translate(349.462891 0)"/>
      <use xlink:href="#DejaVuSans-68" transform="translate(388.671875 0)"/>
      <use xlink:href="#DejaVuSans-72" transform="translate(452.050781 0)"/>
      <use xlink:href="#DejaVuSans-65" transform="translate(490.914062 0)"/>
      <use xlink:href="#DejaVuSans-73" transform="translate(552.4375 0)"/>
      <use xlink:href="#DejaVuSans-68" transform="translate(604.537109 0)"/>
      <use xlink:href="#DejaVuSans-6f" transform="translate(667.916016 0)"/>
      <use xlink:href="#DejaVuSans-6c" transform="translate(729.097656 0)"/>
      <use xlink:href="#DejaVuSans-64" transform="translate(756.880859 0)"/>
     </g>
    </g>
   </g>
  </g>
 </g>
 <defs>
  <clipPath id="p4bac286758">
   <rect x="48.995" y="39.51475" width="649.465" height="345.88"/>
  </clipPath>
 </defs>
</svg>
