<?xml version="1.0" encoding="utf-8" standalone="no"?>
<!DOCTYPE svg PUBLIC "-//W3C//DTD SVG 1.1//EN"
  "http://www.w3.org/Graphics/SVG/1.1/DTD/svg11.dtd">
<svg xmlns:xlink="http://www.w3.org/1999/xlink" width="1073.586875pt" height="568.51537pt" viewBox="0 0 1073.586875 568.51537" xmlns="http://www.w3.org/2000/svg" version="1.1">
 <metadata>
  <rdf:RDF xmlns:dc="http://purl.org/dc/elements/1.1/" xmlns:cc="http://creativecommons.org/ns#" xmlns:rdf="http://www.w3.org/1999/02/22-rdf-syntax-ns#">
   <cc:Work>
    <dc:type rdf:resource="http://purl.org/dc/dcmitype/StillImage"/>
    <dc:date>2025-07-14T22:14:31.269814</dc:date>
    <dc:format>image/svg+xml</dc:format>
    <dc:creator>
     <cc:Agent>
      <dc:title>Matplotlib v3.10.0, https://matplotlib.org/</dc:title>
     </cc:Agent>
    </dc:creator>
   </cc:Work>
  </rdf:RDF>
 </metadata>
 <defs>
  <style type="text/css">*{stroke-linejoin: round; stroke-linecap: butt}</style>
 </defs>
 <g id="figure_1">
  <g id="patch_1">
   <path d="M 0 568.51537 
L 1073.586875 568.51537 
L 1073.586875 0 
L 0 0 
z
" style="fill: #ffffff"/>
  </g>
  <g id="axes_1">
   <g id="patch_2">
    <path d="M 45.716875 485.349309 
L 1066.386875 485.349309 
L 1066.386875 39.3575 
L 45.716875 39.3575 
z
" style="fill: #ffffff"/>
   </g>
   <g id="patch_3">
    <path d="M 92.110966 485.349309 
L 129.60114 485.349309 
L 129.60114 60.595205 
L 92.110966 60.595205 
z
" clip-path="url(#pa6eb4a28f5)" style="fill: #2e8b57; opacity: 0.7; stroke: #000000; stroke-width: 0.5; stroke-linejoin: miter"/>
   </g>
   <g id="patch_4">
    <path d="M 138.973684 485.349309 
L 176.463858 485.349309 
L 176.463858 459.555726 
L 138.973684 459.555726 
z
" clip-path="url(#pa6eb4a28f5)" style="fill: #4682b4; opacity: 0.7; stroke: #000000; stroke-width: 0.5; stroke-linejoin: miter"/>
   </g>
   <g id="patch_5">
    <path d="M 185.836402 485.349309 
L 223.326577 485.349309 
L 223.326577 428.834887 
L 185.836402 428.834887 
z
" clip-path="url(#pa6eb4a28f5)" style="fill: #4682b4; opacity: 0.7; stroke: #000000; stroke-width: 0.5; stroke-linejoin: miter"/>
   </g>
   <g id="patch_6">
    <path d="M 232.69912 485.349309 
L 270.189295 485.349309 
L 270.189295 372.463932 
L 232.69912 372.463932 
z
" clip-path="url(#pa6eb4a28f5)" style="fill: #4682b4; opacity: 0.7; stroke: #000000; stroke-width: 0.5; stroke-linejoin: miter"/>
   </g>
   <g id="patch_7">
    <path d="M 279.561838 485.349309 
L 317.052013 485.349309 
L 317.052013 429.767976 
L 279.561838 429.767976 
z
" clip-path="url(#pa6eb4a28f5)" style="fill: #ff6347; opacity: 0.7; stroke: #000000; stroke-width: 0.5; stroke-linejoin: miter"/>
   </g>
   <g id="patch_8">
    <path d="M 326.424556 485.349309 
L 363.914731 485.349309 
L 363.914731 393.411087 
L 326.424556 393.411087 
z
" clip-path="url(#pa6eb4a28f5)" style="fill: #ff6347; opacity: 0.7; stroke: #000000; stroke-width: 0.5; stroke-linejoin: miter"/>
   </g>
   <g id="patch_9">
    <path d="M 373.287274 485.349309 
L 410.777449 485.349309 
L 410.777449 362.130221 
L 373.287274 362.130221 
z
" clip-path="url(#pa6eb4a28f5)" style="fill: #ff6347; opacity: 0.7; stroke: #000000; stroke-width: 0.5; stroke-linejoin: miter"/>
   </g>
   <g id="patch_10">
    <path d="M 420.149993 485.349309 
L 457.640167 485.349309 
L 457.640167 176.914523 
L 420.149993 176.914523 
z
" clip-path="url(#pa6eb4a28f5)" style="fill: #dc143c; opacity: 0.7; stroke: #000000; stroke-width: 0.5; stroke-linejoin: miter"/>
   </g>
   <g id="patch_11">
    <path d="M 467.012711 485.349309 
L 504.502885 485.349309 
L 504.502885 440.608991 
L 467.012711 440.608991 
z
" clip-path="url(#pa6eb4a28f5)" style="fill: #9370db; opacity: 0.7; stroke: #000000; stroke-width: 0.5; stroke-linejoin: miter"/>
   </g>
   <g id="patch_12">
    <path d="M 513.875429 485.349309 
L 551.365603 485.349309 
L 551.365603 477.97511 
L 513.875429 477.97511 
z
" clip-path="url(#pa6eb4a28f5)" style="fill: #9370db; opacity: 0.7; stroke: #000000; stroke-width: 0.5; stroke-linejoin: miter"/>
   </g>
   <g id="patch_13">
    <path d="M 560.738147 485.349309 
L 598.228321 485.349309 
L 598.228321 475.843916 
L 560.738147 475.843916 
z
" clip-path="url(#pa6eb4a28f5)" style="fill: #ff6347; opacity: 0.7; stroke: #000000; stroke-width: 0.5; stroke-linejoin: miter"/>
   </g>
   <g id="patch_14">
    <path d="M 607.600865 485.349309 
L 645.091039 485.349309 
L 645.091039 484.416598 
L 607.600865 484.416598 
z
" clip-path="url(#pa6eb4a28f5)" style="fill: #4682b4; opacity: 0.7; stroke: #000000; stroke-width: 0.5; stroke-linejoin: miter"/>
   </g>
   <g id="patch_15">
    <path d="M 654.463583 485.349309 
L 691.953757 485.349309 
L 691.953757 476.471738 
L 654.463583 476.471738 
z
" clip-path="url(#pa6eb4a28f5)" style="fill: #4682b4; opacity: 0.7; stroke: #000000; stroke-width: 0.5; stroke-linejoin: miter"/>
   </g>
   <g id="patch_16">
    <path d="M 701.326301 485.349309 
L 738.816476 485.349309 
L 738.816476 474.975517 
L 701.326301 474.975517 
z
" clip-path="url(#pa6eb4a28f5)" style="fill: #9370db; opacity: 0.7; stroke: #000000; stroke-width: 0.5; stroke-linejoin: miter"/>
   </g>
   <g id="patch_17">
    <path d="M 748.189019 485.349309 
L 785.679194 485.349309 
L 785.679194 479.492663 
L 748.189019 479.492663 
z
" clip-path="url(#pa6eb4a28f5)" style="fill: #ff6347; opacity: 0.7; stroke: #000000; stroke-width: 0.5; stroke-linejoin: miter"/>
   </g>
   <g id="patch_18">
    <path d="M 795.051737 485.349309 
L 832.541912 485.349309 
L 832.541912 476.401902 
L 795.051737 476.401902 
z
" clip-path="url(#pa6eb4a28f5)" style="fill: #9370db; opacity: 0.7; stroke: #000000; stroke-width: 0.5; stroke-linejoin: miter"/>
   </g>
   <g id="patch_19">
    <path d="M 841.914455 485.349309 
L 879.40463 485.349309 
L 879.40463 485.256906 
L 841.914455 485.256906 
z
" clip-path="url(#pa6eb4a28f5)" style="fill: #4682b4; opacity: 0.7; stroke: #000000; stroke-width: 0.5; stroke-linejoin: miter"/>
   </g>
   <g id="patch_20">
    <path d="M 888.777173 485.349309 
L 926.267348 485.349309 
L 926.267348 484.736849 
L 888.777173 484.736849 
z
" clip-path="url(#pa6eb4a28f5)" style="fill: #9370db; opacity: 0.7; stroke: #000000; stroke-width: 0.5; stroke-linejoin: miter"/>
   </g>
   <g id="patch_21">
    <path d="M 935.639892 485.349309 
L 973.130066 485.349309 
L 973.130066 485.310865 
L 935.639892 485.310865 
z
" clip-path="url(#pa6eb4a28f5)" style="fill: #ff6347; opacity: 0.7; stroke: #000000; stroke-width: 0.5; stroke-linejoin: miter"/>
   </g>
   <g id="patch_22">
    <path d="M 982.50261 485.349309 
L 1019.992784 485.349309 
L 1019.992784 479.249414 
L 982.50261 479.249414 
z
" clip-path="url(#pa6eb4a28f5)" style="fill: #9370db; opacity: 0.7; stroke: #000000; stroke-width: 0.5; stroke-linejoin: miter"/>
   </g>
   <g id="matplotlib.axis_1">
    <g id="xtick_1">
     <g id="line2d_1">
      <defs>
       <path id="m736d2cc3a2" d="M 0 0 
L 0 3.5 
" style="stroke: #000000; stroke-width: 0.8"/>
      </defs>
      <g>
       <use xlink:href="#m736d2cc3a2" x="110.856053" y="485.349309" style="stroke: #000000; stroke-width: 0.8"/>
      </g>
     </g>
     <g id="text_1">
      <!-- Sp↑ Pe↑ Cl↑ -->
      <g transform="translate(62.876648 544.231059) rotate(-45) scale(0.1 -0.1)">
       <defs>
        <path id="DejaVuSans-53" d="M 3425 4513 
L 3425 3897 
Q 3066 4069 2747 4153 
Q 2428 4238 2131 4238 
Q 1616 4238 1336 4038 
Q 1056 3838 1056 3469 
Q 1056 3159 1242 3001 
Q 1428 2844 1947 2747 
L 2328 2669 
Q 3034 2534 3370 2195 
Q 3706 1856 3706 1288 
Q 3706 609 3251 259 
Q 2797 -91 1919 -91 
Q 1588 -91 1214 -16 
Q 841 59 441 206 
L 441 856 
Q 825 641 1194 531 
Q 1563 422 1919 422 
Q 2459 422 2753 634 
Q 3047 847 3047 1241 
Q 3047 1584 2836 1778 
Q 2625 1972 2144 2069 
L 1759 2144 
Q 1053 2284 737 2584 
Q 422 2884 422 3419 
Q 422 4038 858 4394 
Q 1294 4750 2059 4750 
Q 2388 4750 2728 4690 
Q 3069 4631 3425 4513 
z
" transform="scale(0.015625)"/>
        <path id="DejaVuSans-70" d="M 1159 525 
L 1159 -1331 
L 581 -1331 
L 581 3500 
L 1159 3500 
L 1159 2969 
Q 1341 3281 1617 3432 
Q 1894 3584 2278 3584 
Q 2916 3584 3314 3078 
Q 3713 2572 3713 1747 
Q 3713 922 3314 415 
Q 2916 -91 2278 -91 
Q 1894 -91 1617 61 
Q 1341 213 1159 525 
z
M 3116 1747 
Q 3116 2381 2855 2742 
Q 2594 3103 2138 3103 
Q 1681 3103 1420 2742 
Q 1159 2381 1159 1747 
Q 1159 1113 1420 752 
Q 1681 391 2138 391 
Q 2594 391 2855 752 
Q 3116 1113 3116 1747 
z
" transform="scale(0.015625)"/>
        <path id="DejaVuSans-2191" d="M 2541 4688 
L 2822 4688 
L 4047 3456 
L 3672 3081 
L 2947 3813 
L 2947 0 
L 2416 0 
L 2416 3813 
L 1684 3081 
L 1309 3456 
L 2541 4688 
z
" transform="scale(0.015625)"/>
        <path id="DejaVuSans-20" transform="scale(0.015625)"/>
        <path id="DejaVuSans-50" d="M 1259 4147 
L 1259 2394 
L 2053 2394 
Q 2494 2394 2734 2622 
Q 2975 2850 2975 3272 
Q 2975 3691 2734 3919 
Q 2494 4147 2053 4147 
L 1259 4147 
z
M 628 4666 
L 2053 4666 
Q 2838 4666 3239 4311 
Q 3641 3956 3641 3272 
Q 3641 2581 3239 2228 
Q 2838 1875 2053 1875 
L 1259 1875 
L 1259 0 
L 628 0 
L 628 4666 
z
" transform="scale(0.015625)"/>
        <path id="DejaVuSans-65" d="M 3597 1894 
L 3597 1613 
L 953 1613 
Q 991 1019 1311 708 
Q 1631 397 2203 397 
Q 2534 397 2845 478 
Q 3156 559 3463 722 
L 3463 178 
Q 3153 47 2828 -22 
Q 2503 -91 2169 -91 
Q 1331 -91 842 396 
Q 353 884 353 1716 
Q 353 2575 817 3079 
Q 1281 3584 2069 3584 
Q 2775 3584 3186 3129 
Q 3597 2675 3597 1894 
z
M 3022 2063 
Q 3016 2534 2758 2815 
Q 2500 3097 2075 3097 
Q 1594 3097 1305 2825 
Q 1016 2553 972 2059 
L 3022 2063 
z
" transform="scale(0.015625)"/>
        <path id="DejaVuSans-43" d="M 4122 4306 
L 4122 3641 
Q 3803 3938 3442 4084 
Q 3081 4231 2675 4231 
Q 1875 4231 1450 3742 
Q 1025 3253 1025 2328 
Q 1025 1406 1450 917 
Q 1875 428 2675 428 
Q 3081 428 3442 575 
Q 3803 722 4122 1019 
L 4122 359 
Q 3791 134 3420 21 
Q 3050 -91 2638 -91 
Q 1578 -91 968 557 
Q 359 1206 359 2328 
Q 359 3453 968 4101 
Q 1578 4750 2638 4750 
Q 3056 4750 3426 4639 
Q 3797 4528 4122 4306 
z
" transform="scale(0.015625)"/>
        <path id="DejaVuSans-6c" d="M 603 4863 
L 1178 4863 
L 1178 0 
L 603 0 
L 603 4863 
z
" transform="scale(0.015625)"/>
       </defs>
       <use xlink:href="#DejaVuSans-53"/>
       <use xlink:href="#DejaVuSans-70" transform="translate(63.476562 0)"/>
       <use xlink:href="#DejaVuSans-2191" transform="translate(126.953125 0)"/>
       <use xlink:href="#DejaVuSans-20" transform="translate(210.742188 0)"/>
       <use xlink:href="#DejaVuSans-50" transform="translate(242.529297 0)"/>
       <use xlink:href="#DejaVuSans-65" transform="translate(299.207031 0)"/>
       <use xlink:href="#DejaVuSans-2191" transform="translate(360.730469 0)"/>
       <use xlink:href="#DejaVuSans-20" transform="translate(444.519531 0)"/>
       <use xlink:href="#DejaVuSans-43" transform="translate(476.306641 0)"/>
       <use xlink:href="#DejaVuSans-6c" transform="translate(546.130859 0)"/>
       <use xlink:href="#DejaVuSans-2191" transform="translate(573.914062 0)"/>
      </g>
     </g>
    </g>
    <g id="xtick_2">
     <g id="line2d_2">
      <g>
       <use xlink:href="#m736d2cc3a2" x="157.718771" y="485.349309" style="stroke: #000000; stroke-width: 0.8"/>
      </g>
     </g>
     <g id="text_2">
      <!-- Pe↑ Cl↑ -->
      <g transform="translate(126.89002 527.080405) rotate(-45) scale(0.1 -0.1)">
       <use xlink:href="#DejaVuSans-50"/>
       <use xlink:href="#DejaVuSans-65" transform="translate(56.677734 0)"/>
       <use xlink:href="#DejaVuSans-2191" transform="translate(118.201172 0)"/>
       <use xlink:href="#DejaVuSans-20" transform="translate(201.990234 0)"/>
       <use xlink:href="#DejaVuSans-43" transform="translate(233.777344 0)"/>
       <use xlink:href="#DejaVuSans-6c" transform="translate(303.601562 0)"/>
       <use xlink:href="#DejaVuSans-2191" transform="translate(331.384766 0)"/>
      </g>
     </g>
    </g>
    <g id="xtick_3">
     <g id="line2d_3">
      <g>
       <use xlink:href="#m736d2cc3a2" x="204.581489" y="485.349309" style="stroke: #000000; stroke-width: 0.8"/>
      </g>
     </g>
     <g id="text_3">
      <!-- Sp↑ Cl↑ -->
      <g transform="translate(173.132915 527.700228) rotate(-45) scale(0.1 -0.1)">
       <use xlink:href="#DejaVuSans-53"/>
       <use xlink:href="#DejaVuSans-70" transform="translate(63.476562 0)"/>
       <use xlink:href="#DejaVuSans-2191" transform="translate(126.953125 0)"/>
       <use xlink:href="#DejaVuSans-20" transform="translate(210.742188 0)"/>
       <use xlink:href="#DejaVuSans-43" transform="translate(242.529297 0)"/>
       <use xlink:href="#DejaVuSans-6c" transform="translate(312.353516 0)"/>
       <use xlink:href="#DejaVuSans-2191" transform="translate(340.136719 0)"/>
      </g>
     </g>
    </g>
    <g id="xtick_4">
     <g id="line2d_4">
      <g>
       <use xlink:href="#m736d2cc3a2" x="251.444207" y="485.349309" style="stroke: #000000; stroke-width: 0.8"/>
      </g>
     </g>
     <g id="text_4">
      <!-- Sp↑ Pe↑ -->
      <g transform="translate(218.539435 529.156426) rotate(-45) scale(0.1 -0.1)">
       <use xlink:href="#DejaVuSans-53"/>
       <use xlink:href="#DejaVuSans-70" transform="translate(63.476562 0)"/>
       <use xlink:href="#DejaVuSans-2191" transform="translate(126.953125 0)"/>
       <use xlink:href="#DejaVuSans-20" transform="translate(210.742188 0)"/>
       <use xlink:href="#DejaVuSans-50" transform="translate(242.529297 0)"/>
       <use xlink:href="#DejaVuSans-65" transform="translate(299.207031 0)"/>
       <use xlink:href="#DejaVuSans-2191" transform="translate(360.730469 0)"/>
      </g>
     </g>
    </g>
    <g id="xtick_5">
     <g id="line2d_5">
      <g>
       <use xlink:href="#m736d2cc3a2" x="298.306926" y="485.349309" style="stroke: #000000; stroke-width: 0.8"/>
      </g>
     </g>
     <g id="text_5">
      <!-- Pe↓ Cl↓ -->
      <g transform="translate(267.478175 527.080405) rotate(-45) scale(0.1 -0.1)">
       <defs>
        <path id="DejaVuSans-2193" d="M 2822 -22 
L 2541 -22 
L 1309 1209 
L 1684 1584 
L 2416 853 
L 2416 4666 
L 2947 4666 
L 2947 853 
L 3672 1584 
L 4047 1209 
L 2822 -22 
z
" transform="scale(0.015625)"/>
       </defs>
       <use xlink:href="#DejaVuSans-50"/>
       <use xlink:href="#DejaVuSans-65" transform="translate(56.677734 0)"/>
       <use xlink:href="#DejaVuSans-2193" transform="translate(118.201172 0)"/>
       <use xlink:href="#DejaVuSans-20" transform="translate(201.990234 0)"/>
       <use xlink:href="#DejaVuSans-43" transform="translate(233.777344 0)"/>
       <use xlink:href="#DejaVuSans-6c" transform="translate(303.601562 0)"/>
       <use xlink:href="#DejaVuSans-2193" transform="translate(331.384766 0)"/>
      </g>
     </g>
    </g>
    <g id="xtick_6">
     <g id="line2d_6">
      <g>
       <use xlink:href="#m736d2cc3a2" x="345.169644" y="485.349309" style="stroke: #000000; stroke-width: 0.8"/>
      </g>
     </g>
     <g id="text_6">
      <!-- Sp↓ Cl↓ -->
      <g transform="translate(313.72107 527.700228) rotate(-45) scale(0.1 -0.1)">
       <use xlink:href="#DejaVuSans-53"/>
       <use xlink:href="#DejaVuSans-70" transform="translate(63.476562 0)"/>
       <use xlink:href="#DejaVuSans-2193" transform="translate(126.953125 0)"/>
       <use xlink:href="#DejaVuSans-20" transform="translate(210.742188 0)"/>
       <use xlink:href="#DejaVuSans-43" transform="translate(242.529297 0)"/>
       <use xlink:href="#DejaVuSans-6c" transform="translate(312.353516 0)"/>
       <use xlink:href="#DejaVuSans-2193" transform="translate(340.136719 0)"/>
      </g>
     </g>
    </g>
    <g id="xtick_7">
     <g id="line2d_7">
      <g>
       <use xlink:href="#m736d2cc3a2" x="392.032362" y="485.349309" style="stroke: #000000; stroke-width: 0.8"/>
      </g>
     </g>
     <g id="text_7">
      <!-- Sp↓ Pe↓ -->
      <g transform="translate(359.12759 529.156426) rotate(-45) scale(0.1 -0.1)">
       <use xlink:href="#DejaVuSans-53"/>
       <use xlink:href="#DejaVuSans-70" transform="translate(63.476562 0)"/>
       <use xlink:href="#DejaVuSans-2193" transform="translate(126.953125 0)"/>
       <use xlink:href="#DejaVuSans-20" transform="translate(210.742188 0)"/>
       <use xlink:href="#DejaVuSans-50" transform="translate(242.529297 0)"/>
       <use xlink:href="#DejaVuSans-65" transform="translate(299.207031 0)"/>
       <use xlink:href="#DejaVuSans-2193" transform="translate(360.730469 0)"/>
      </g>
     </g>
    </g>
    <g id="xtick_8">
     <g id="line2d_8">
      <g>
       <use xlink:href="#m736d2cc3a2" x="438.89508" y="485.349309" style="stroke: #000000; stroke-width: 0.8"/>
      </g>
     </g>
     <g id="text_8">
      <!-- Sp↓ Pe↓ Cl↓ -->
      <g transform="translate(390.915675 544.231059) rotate(-45) scale(0.1 -0.1)">
       <use xlink:href="#DejaVuSans-53"/>
       <use xlink:href="#DejaVuSans-70" transform="translate(63.476562 0)"/>
       <use xlink:href="#DejaVuSans-2193" transform="translate(126.953125 0)"/>
       <use xlink:href="#DejaVuSans-20" transform="translate(210.742188 0)"/>
       <use xlink:href="#DejaVuSans-50" transform="translate(242.529297 0)"/>
       <use xlink:href="#DejaVuSans-65" transform="translate(299.207031 0)"/>
       <use xlink:href="#DejaVuSans-2193" transform="translate(360.730469 0)"/>
       <use xlink:href="#DejaVuSans-20" transform="translate(444.519531 0)"/>
       <use xlink:href="#DejaVuSans-43" transform="translate(476.306641 0)"/>
       <use xlink:href="#DejaVuSans-6c" transform="translate(546.130859 0)"/>
       <use xlink:href="#DejaVuSans-2193" transform="translate(573.914062 0)"/>
      </g>
     </g>
    </g>
    <g id="xtick_9">
     <g id="line2d_9">
      <g>
       <use xlink:href="#m736d2cc3a2" x="485.757798" y="485.349309" style="stroke: #000000; stroke-width: 0.8"/>
      </g>
     </g>
     <g id="text_9">
      <!-- Cl↑ Pe↓ -->
      <g transform="translate(454.929047 527.080405) rotate(-45) scale(0.1 -0.1)">
       <use xlink:href="#DejaVuSans-43"/>
       <use xlink:href="#DejaVuSans-6c" transform="translate(69.824219 0)"/>
       <use xlink:href="#DejaVuSans-2191" transform="translate(97.607422 0)"/>
       <use xlink:href="#DejaVuSans-20" transform="translate(181.396484 0)"/>
       <use xlink:href="#DejaVuSans-50" transform="translate(213.183594 0)"/>
       <use xlink:href="#DejaVuSans-65" transform="translate(269.861328 0)"/>
       <use xlink:href="#DejaVuSans-2193" transform="translate(331.384766 0)"/>
      </g>
     </g>
    </g>
    <g id="xtick_10">
     <g id="line2d_10">
      <g>
       <use xlink:href="#m736d2cc3a2" x="532.620516" y="485.349309" style="stroke: #000000; stroke-width: 0.8"/>
      </g>
     </g>
     <g id="text_10">
      <!-- Cl↑ Sp↓ -->
      <g transform="translate(501.171942 527.700228) rotate(-45) scale(0.1 -0.1)">
       <use xlink:href="#DejaVuSans-43"/>
       <use xlink:href="#DejaVuSans-6c" transform="translate(69.824219 0)"/>
       <use xlink:href="#DejaVuSans-2191" transform="translate(97.607422 0)"/>
       <use xlink:href="#DejaVuSans-20" transform="translate(181.396484 0)"/>
       <use xlink:href="#DejaVuSans-53" transform="translate(213.183594 0)"/>
       <use xlink:href="#DejaVuSans-70" transform="translate(276.660156 0)"/>
       <use xlink:href="#DejaVuSans-2193" transform="translate(340.136719 0)"/>
      </g>
     </g>
    </g>
    <g id="xtick_11">
     <g id="line2d_11">
      <g>
       <use xlink:href="#m736d2cc3a2" x="579.483234" y="485.349309" style="stroke: #000000; stroke-width: 0.8"/>
      </g>
     </g>
     <g id="text_11">
      <!-- Cl↑ Sp↓ Pe↓ -->
      <g transform="translate(531.503829 544.231059) rotate(-45) scale(0.1 -0.1)">
       <use xlink:href="#DejaVuSans-43"/>
       <use xlink:href="#DejaVuSans-6c" transform="translate(69.824219 0)"/>
       <use xlink:href="#DejaVuSans-2191" transform="translate(97.607422 0)"/>
       <use xlink:href="#DejaVuSans-20" transform="translate(181.396484 0)"/>
       <use xlink:href="#DejaVuSans-53" transform="translate(213.183594 0)"/>
       <use xlink:href="#DejaVuSans-70" transform="translate(276.660156 0)"/>
       <use xlink:href="#DejaVuSans-2193" transform="translate(340.136719 0)"/>
       <use xlink:href="#DejaVuSans-20" transform="translate(423.925781 0)"/>
       <use xlink:href="#DejaVuSans-50" transform="translate(455.712891 0)"/>
       <use xlink:href="#DejaVuSans-65" transform="translate(512.390625 0)"/>
       <use xlink:href="#DejaVuSans-2193" transform="translate(573.914062 0)"/>
      </g>
     </g>
    </g>
    <g id="xtick_12">
     <g id="line2d_12">
      <g>
       <use xlink:href="#m736d2cc3a2" x="626.345952" y="485.349309" style="stroke: #000000; stroke-width: 0.8"/>
      </g>
     </g>
     <g id="text_12">
      <!-- Pe↑ Cl↑ Sp↓ -->
      <g transform="translate(578.366547 544.231059) rotate(-45) scale(0.1 -0.1)">
       <use xlink:href="#DejaVuSans-50"/>
       <use xlink:href="#DejaVuSans-65" transform="translate(56.677734 0)"/>
       <use xlink:href="#DejaVuSans-2191" transform="translate(118.201172 0)"/>
       <use xlink:href="#DejaVuSans-20" transform="translate(201.990234 0)"/>
       <use xlink:href="#DejaVuSans-43" transform="translate(233.777344 0)"/>
       <use xlink:href="#DejaVuSans-6c" transform="translate(303.601562 0)"/>
       <use xlink:href="#DejaVuSans-2191" transform="translate(331.384766 0)"/>
       <use xlink:href="#DejaVuSans-20" transform="translate(415.173828 0)"/>
       <use xlink:href="#DejaVuSans-53" transform="translate(446.960938 0)"/>
       <use xlink:href="#DejaVuSans-70" transform="translate(510.4375 0)"/>
       <use xlink:href="#DejaVuSans-2193" transform="translate(573.914062 0)"/>
      </g>
     </g>
    </g>
    <g id="xtick_13">
     <g id="line2d_13">
      <g>
       <use xlink:href="#m736d2cc3a2" x="673.20867" y="485.349309" style="stroke: #000000; stroke-width: 0.8"/>
      </g>
     </g>
     <g id="text_13">
      <!-- Sp↑ Cl↑ Pe↓ -->
      <g transform="translate(625.229265 544.231059) rotate(-45) scale(0.1 -0.1)">
       <use xlink:href="#DejaVuSans-53"/>
       <use xlink:href="#DejaVuSans-70" transform="translate(63.476562 0)"/>
       <use xlink:href="#DejaVuSans-2191" transform="translate(126.953125 0)"/>
       <use xlink:href="#DejaVuSans-20" transform="translate(210.742188 0)"/>
       <use xlink:href="#DejaVuSans-43" transform="translate(242.529297 0)"/>
       <use xlink:href="#DejaVuSans-6c" transform="translate(312.353516 0)"/>
       <use xlink:href="#DejaVuSans-2191" transform="translate(340.136719 0)"/>
       <use xlink:href="#DejaVuSans-20" transform="translate(423.925781 0)"/>
       <use xlink:href="#DejaVuSans-50" transform="translate(455.712891 0)"/>
       <use xlink:href="#DejaVuSans-65" transform="translate(512.390625 0)"/>
       <use xlink:href="#DejaVuSans-2193" transform="translate(573.914062 0)"/>
      </g>
     </g>
    </g>
    <g id="xtick_14">
     <g id="line2d_14">
      <g>
       <use xlink:href="#m736d2cc3a2" x="720.071388" y="485.349309" style="stroke: #000000; stroke-width: 0.8"/>
      </g>
     </g>
     <g id="text_14">
      <!-- Pe↑ Cl↓ -->
      <g transform="translate(689.242638 527.080405) rotate(-45) scale(0.1 -0.1)">
       <use xlink:href="#DejaVuSans-50"/>
       <use xlink:href="#DejaVuSans-65" transform="translate(56.677734 0)"/>
       <use xlink:href="#DejaVuSans-2191" transform="translate(118.201172 0)"/>
       <use xlink:href="#DejaVuSans-20" transform="translate(201.990234 0)"/>
       <use xlink:href="#DejaVuSans-43" transform="translate(233.777344 0)"/>
       <use xlink:href="#DejaVuSans-6c" transform="translate(303.601562 0)"/>
       <use xlink:href="#DejaVuSans-2193" transform="translate(331.384766 0)"/>
      </g>
     </g>
    </g>
    <g id="xtick_15">
     <g id="line2d_15">
      <g>
       <use xlink:href="#m736d2cc3a2" x="766.934106" y="485.349309" style="stroke: #000000; stroke-width: 0.8"/>
      </g>
     </g>
     <g id="text_15">
      <!-- Pe↑ Sp↓ Cl↓ -->
      <g transform="translate(718.954702 544.231059) rotate(-45) scale(0.1 -0.1)">
       <use xlink:href="#DejaVuSans-50"/>
       <use xlink:href="#DejaVuSans-65" transform="translate(56.677734 0)"/>
       <use xlink:href="#DejaVuSans-2191" transform="translate(118.201172 0)"/>
       <use xlink:href="#DejaVuSans-20" transform="translate(201.990234 0)"/>
       <use xlink:href="#DejaVuSans-53" transform="translate(233.777344 0)"/>
       <use xlink:href="#DejaVuSans-70" transform="translate(297.253906 0)"/>
       <use xlink:href="#DejaVuSans-2193" transform="translate(360.730469 0)"/>
       <use xlink:href="#DejaVuSans-20" transform="translate(444.519531 0)"/>
       <use xlink:href="#DejaVuSans-43" transform="translate(476.306641 0)"/>
       <use xlink:href="#DejaVuSans-6c" transform="translate(546.130859 0)"/>
       <use xlink:href="#DejaVuSans-2193" transform="translate(573.914062 0)"/>
      </g>
     </g>
    </g>
    <g id="xtick_16">
     <g id="line2d_16">
      <g>
       <use xlink:href="#m736d2cc3a2" x="813.796824" y="485.349309" style="stroke: #000000; stroke-width: 0.8"/>
      </g>
     </g>
     <g id="text_16">
      <!-- Pe↑ Sp↓ -->
      <g transform="translate(780.892052 529.156426) rotate(-45) scale(0.1 -0.1)">
       <use xlink:href="#DejaVuSans-50"/>
       <use xlink:href="#DejaVuSans-65" transform="translate(56.677734 0)"/>
       <use xlink:href="#DejaVuSans-2191" transform="translate(118.201172 0)"/>
       <use xlink:href="#DejaVuSans-20" transform="translate(201.990234 0)"/>
       <use xlink:href="#DejaVuSans-53" transform="translate(233.777344 0)"/>
       <use xlink:href="#DejaVuSans-70" transform="translate(297.253906 0)"/>
       <use xlink:href="#DejaVuSans-2193" transform="translate(360.730469 0)"/>
      </g>
     </g>
    </g>
    <g id="xtick_17">
     <g id="line2d_17">
      <g>
       <use xlink:href="#m736d2cc3a2" x="860.659543" y="485.349309" style="stroke: #000000; stroke-width: 0.8"/>
      </g>
     </g>
     <g id="text_17">
      <!-- Sp↑ Pe↑ Cl↓ -->
      <g transform="translate(812.680138 544.231059) rotate(-45) scale(0.1 -0.1)">
       <use xlink:href="#DejaVuSans-53"/>
       <use xlink:href="#DejaVuSans-70" transform="translate(63.476562 0)"/>
       <use xlink:href="#DejaVuSans-2191" transform="translate(126.953125 0)"/>
       <use xlink:href="#DejaVuSans-20" transform="translate(210.742188 0)"/>
       <use xlink:href="#DejaVuSans-50" transform="translate(242.529297 0)"/>
       <use xlink:href="#DejaVuSans-65" transform="translate(299.207031 0)"/>
       <use xlink:href="#DejaVuSans-2191" transform="translate(360.730469 0)"/>
       <use xlink:href="#DejaVuSans-20" transform="translate(444.519531 0)"/>
       <use xlink:href="#DejaVuSans-43" transform="translate(476.306641 0)"/>
       <use xlink:href="#DejaVuSans-6c" transform="translate(546.130859 0)"/>
       <use xlink:href="#DejaVuSans-2193" transform="translate(573.914062 0)"/>
      </g>
     </g>
    </g>
    <g id="xtick_18">
     <g id="line2d_18">
      <g>
       <use xlink:href="#m736d2cc3a2" x="907.522261" y="485.349309" style="stroke: #000000; stroke-width: 0.8"/>
      </g>
     </g>
     <g id="text_18">
      <!-- Sp↑ Cl↓ -->
      <g transform="translate(876.073687 527.700228) rotate(-45) scale(0.1 -0.1)">
       <use xlink:href="#DejaVuSans-53"/>
       <use xlink:href="#DejaVuSans-70" transform="translate(63.476562 0)"/>
       <use xlink:href="#DejaVuSans-2191" transform="translate(126.953125 0)"/>
       <use xlink:href="#DejaVuSans-20" transform="translate(210.742188 0)"/>
       <use xlink:href="#DejaVuSans-43" transform="translate(242.529297 0)"/>
       <use xlink:href="#DejaVuSans-6c" transform="translate(312.353516 0)"/>
       <use xlink:href="#DejaVuSans-2193" transform="translate(340.136719 0)"/>
      </g>
     </g>
    </g>
    <g id="xtick_19">
     <g id="line2d_19">
      <g>
       <use xlink:href="#m736d2cc3a2" x="954.384979" y="485.349309" style="stroke: #000000; stroke-width: 0.8"/>
      </g>
     </g>
     <g id="text_19">
      <!-- Sp↑ Pe↓ Cl↓ -->
      <g transform="translate(906.405574 544.231059) rotate(-45) scale(0.1 -0.1)">
       <use xlink:href="#DejaVuSans-53"/>
       <use xlink:href="#DejaVuSans-70" transform="translate(63.476562 0)"/>
       <use xlink:href="#DejaVuSans-2191" transform="translate(126.953125 0)"/>
       <use xlink:href="#DejaVuSans-20" transform="translate(210.742188 0)"/>
       <use xlink:href="#DejaVuSans-50" transform="translate(242.529297 0)"/>
       <use xlink:href="#DejaVuSans-65" transform="translate(299.207031 0)"/>
       <use xlink:href="#DejaVuSans-2193" transform="translate(360.730469 0)"/>
       <use xlink:href="#DejaVuSans-20" transform="translate(444.519531 0)"/>
       <use xlink:href="#DejaVuSans-43" transform="translate(476.306641 0)"/>
       <use xlink:href="#DejaVuSans-6c" transform="translate(546.130859 0)"/>
       <use xlink:href="#DejaVuSans-2193" transform="translate(573.914062 0)"/>
      </g>
     </g>
    </g>
    <g id="xtick_20">
     <g id="line2d_20">
      <g>
       <use xlink:href="#m736d2cc3a2" x="1001.247697" y="485.349309" style="stroke: #000000; stroke-width: 0.8"/>
      </g>
     </g>
     <g id="text_20">
      <!-- Sp↑ Pe↓ -->
      <g transform="translate(968.342925 529.156426) rotate(-45) scale(0.1 -0.1)">
       <use xlink:href="#DejaVuSans-53"/>
       <use xlink:href="#DejaVuSans-70" transform="translate(63.476562 0)"/>
       <use xlink:href="#DejaVuSans-2191" transform="translate(126.953125 0)"/>
       <use xlink:href="#DejaVuSans-20" transform="translate(210.742188 0)"/>
       <use xlink:href="#DejaVuSans-50" transform="translate(242.529297 0)"/>
       <use xlink:href="#DejaVuSans-65" transform="translate(299.207031 0)"/>
       <use xlink:href="#DejaVuSans-2193" transform="translate(360.730469 0)"/>
      </g>
     </g>
    </g>
    <g id="text_21">
     <!-- Indicator Combinations -->
     <g transform="translate(477.214688 558.819745) scale(0.12 -0.12)">
      <defs>
       <path id="DejaVuSans-Bold-49" d="M 588 4666 
L 1791 4666 
L 1791 0 
L 588 0 
L 588 4666 
z
" transform="scale(0.015625)"/>
       <path id="DejaVuSans-Bold-6e" d="M 4056 2131 
L 4056 0 
L 2931 0 
L 2931 347 
L 2931 1631 
Q 2931 2084 2911 2256 
Q 2891 2428 2841 2509 
Q 2775 2619 2662 2680 
Q 2550 2741 2406 2741 
Q 2056 2741 1856 2470 
Q 1656 2200 1656 1722 
L 1656 0 
L 538 0 
L 538 3500 
L 1656 3500 
L 1656 2988 
Q 1909 3294 2193 3439 
Q 2478 3584 2822 3584 
Q 3428 3584 3742 3212 
Q 4056 2841 4056 2131 
z
" transform="scale(0.015625)"/>
       <path id="DejaVuSans-Bold-64" d="M 2919 2988 
L 2919 4863 
L 4044 4863 
L 4044 0 
L 2919 0 
L 2919 506 
Q 2688 197 2409 53 
Q 2131 -91 1766 -91 
Q 1119 -91 703 423 
Q 288 938 288 1747 
Q 288 2556 703 3070 
Q 1119 3584 1766 3584 
Q 2128 3584 2408 3439 
Q 2688 3294 2919 2988 
z
M 2181 722 
Q 2541 722 2730 984 
Q 2919 1247 2919 1747 
Q 2919 2247 2730 2509 
Q 2541 2772 2181 2772 
Q 1825 2772 1636 2509 
Q 1447 2247 1447 1747 
Q 1447 1247 1636 984 
Q 1825 722 2181 722 
z
" transform="scale(0.015625)"/>
       <path id="DejaVuSans-Bold-69" d="M 538 3500 
L 1656 3500 
L 1656 0 
L 538 0 
L 538 3500 
z
M 538 4863 
L 1656 4863 
L 1656 3950 
L 538 3950 
L 538 4863 
z
" transform="scale(0.015625)"/>
       <path id="DejaVuSans-Bold-63" d="M 3366 3391 
L 3366 2478 
Q 3138 2634 2908 2709 
Q 2678 2784 2431 2784 
Q 1963 2784 1702 2511 
Q 1441 2238 1441 1747 
Q 1441 1256 1702 982 
Q 1963 709 2431 709 
Q 2694 709 2930 787 
Q 3166 866 3366 1019 
L 3366 103 
Q 3103 6 2833 -42 
Q 2563 -91 2291 -91 
Q 1344 -91 809 395 
Q 275 881 275 1747 
Q 275 2613 809 3098 
Q 1344 3584 2291 3584 
Q 2566 3584 2833 3536 
Q 3100 3488 3366 3391 
z
" transform="scale(0.015625)"/>
       <path id="DejaVuSans-Bold-61" d="M 2106 1575 
Q 1756 1575 1579 1456 
Q 1403 1338 1403 1106 
Q 1403 894 1545 773 
Q 1688 653 1941 653 
Q 2256 653 2472 879 
Q 2688 1106 2688 1447 
L 2688 1575 
L 2106 1575 
z
M 3816 1997 
L 3816 0 
L 2688 0 
L 2688 519 
Q 2463 200 2181 54 
Q 1900 -91 1497 -91 
Q 953 -91 614 226 
Q 275 544 275 1050 
Q 275 1666 698 1953 
Q 1122 2241 2028 2241 
L 2688 2241 
L 2688 2328 
Q 2688 2594 2478 2717 
Q 2269 2841 1825 2841 
Q 1466 2841 1156 2769 
Q 847 2697 581 2553 
L 581 3406 
Q 941 3494 1303 3539 
Q 1666 3584 2028 3584 
Q 2975 3584 3395 3211 
Q 3816 2838 3816 1997 
z
" transform="scale(0.015625)"/>
       <path id="DejaVuSans-Bold-74" d="M 1759 4494 
L 1759 3500 
L 2913 3500 
L 2913 2700 
L 1759 2700 
L 1759 1216 
Q 1759 972 1856 886 
Q 1953 800 2241 800 
L 2816 800 
L 2816 0 
L 1856 0 
Q 1194 0 917 276 
Q 641 553 641 1216 
L 641 2700 
L 84 2700 
L 84 3500 
L 641 3500 
L 641 4494 
L 1759 4494 
z
" transform="scale(0.015625)"/>
       <path id="DejaVuSans-Bold-6f" d="M 2203 2784 
Q 1831 2784 1636 2517 
Q 1441 2250 1441 1747 
Q 1441 1244 1636 976 
Q 1831 709 2203 709 
Q 2569 709 2762 976 
Q 2956 1244 2956 1747 
Q 2956 2250 2762 2517 
Q 2569 2784 2203 2784 
z
M 2203 3584 
Q 3106 3584 3614 3096 
Q 4122 2609 4122 1747 
Q 4122 884 3614 396 
Q 3106 -91 2203 -91 
Q 1297 -91 786 396 
Q 275 884 275 1747 
Q 275 2609 786 3096 
Q 1297 3584 2203 3584 
z
" transform="scale(0.015625)"/>
       <path id="DejaVuSans-Bold-72" d="M 3138 2547 
Q 2991 2616 2845 2648 
Q 2700 2681 2553 2681 
Q 2122 2681 1889 2404 
Q 1656 2128 1656 1613 
L 1656 0 
L 538 0 
L 538 3500 
L 1656 3500 
L 1656 2925 
Q 1872 3269 2151 3426 
Q 2431 3584 2822 3584 
Q 2878 3584 2943 3579 
Q 3009 3575 3134 3559 
L 3138 2547 
z
" transform="scale(0.015625)"/>
       <path id="DejaVuSans-Bold-20" transform="scale(0.015625)"/>
       <path id="DejaVuSans-Bold-43" d="M 4288 256 
Q 3956 84 3597 -3 
Q 3238 -91 2847 -91 
Q 1681 -91 1000 561 
Q 319 1213 319 2328 
Q 319 3447 1000 4098 
Q 1681 4750 2847 4750 
Q 3238 4750 3597 4662 
Q 3956 4575 4288 4403 
L 4288 3438 
Q 3953 3666 3628 3772 
Q 3303 3878 2944 3878 
Q 2300 3878 1931 3465 
Q 1563 3053 1563 2328 
Q 1563 1606 1931 1193 
Q 2300 781 2944 781 
Q 3303 781 3628 887 
Q 3953 994 4288 1222 
L 4288 256 
z
" transform="scale(0.015625)"/>
       <path id="DejaVuSans-Bold-6d" d="M 3781 2919 
Q 3994 3244 4286 3414 
Q 4578 3584 4928 3584 
Q 5531 3584 5847 3212 
Q 6163 2841 6163 2131 
L 6163 0 
L 5038 0 
L 5038 1825 
Q 5041 1866 5042 1909 
Q 5044 1953 5044 2034 
Q 5044 2406 4934 2573 
Q 4825 2741 4581 2741 
Q 4263 2741 4089 2478 
Q 3916 2216 3909 1719 
L 3909 0 
L 2784 0 
L 2784 1825 
Q 2784 2406 2684 2573 
Q 2584 2741 2328 2741 
Q 2006 2741 1831 2477 
Q 1656 2213 1656 1722 
L 1656 0 
L 531 0 
L 531 3500 
L 1656 3500 
L 1656 2988 
Q 1863 3284 2130 3434 
Q 2397 3584 2719 3584 
Q 3081 3584 3359 3409 
Q 3638 3234 3781 2919 
z
" transform="scale(0.015625)"/>
       <path id="DejaVuSans-Bold-62" d="M 2400 722 
Q 2759 722 2948 984 
Q 3138 1247 3138 1747 
Q 3138 2247 2948 2509 
Q 2759 2772 2400 2772 
Q 2041 2772 1848 2508 
Q 1656 2244 1656 1747 
Q 1656 1250 1848 986 
Q 2041 722 2400 722 
z
M 1656 2988 
Q 1888 3294 2169 3439 
Q 2450 3584 2816 3584 
Q 3463 3584 3878 3070 
Q 4294 2556 4294 1747 
Q 4294 938 3878 423 
Q 3463 -91 2816 -91 
Q 2450 -91 2169 54 
Q 1888 200 1656 506 
L 1656 0 
L 538 0 
L 538 4863 
L 1656 4863 
L 1656 2988 
z
" transform="scale(0.015625)"/>
       <path id="DejaVuSans-Bold-73" d="M 3272 3391 
L 3272 2541 
Q 2913 2691 2578 2766 
Q 2244 2841 1947 2841 
Q 1628 2841 1473 2761 
Q 1319 2681 1319 2516 
Q 1319 2381 1436 2309 
Q 1553 2238 1856 2203 
L 2053 2175 
Q 2913 2066 3209 1816 
Q 3506 1566 3506 1031 
Q 3506 472 3093 190 
Q 2681 -91 1863 -91 
Q 1516 -91 1145 -36 
Q 775 19 384 128 
L 384 978 
Q 719 816 1070 734 
Q 1422 653 1784 653 
Q 2113 653 2278 743 
Q 2444 834 2444 1013 
Q 2444 1163 2330 1236 
Q 2216 1309 1875 1350 
L 1678 1375 
Q 931 1469 631 1722 
Q 331 1975 331 2491 
Q 331 3047 712 3315 
Q 1094 3584 1881 3584 
Q 2191 3584 2531 3537 
Q 2872 3491 3272 3391 
z
" transform="scale(0.015625)"/>
      </defs>
      <use xlink:href="#DejaVuSans-Bold-49"/>
      <use xlink:href="#DejaVuSans-Bold-6e" transform="translate(37.207031 0)"/>
      <use xlink:href="#DejaVuSans-Bold-64" transform="translate(108.398438 0)"/>
      <use xlink:href="#DejaVuSans-Bold-69" transform="translate(179.980469 0)"/>
      <use xlink:href="#DejaVuSans-Bold-63" transform="translate(214.257812 0)"/>
      <use xlink:href="#DejaVuSans-Bold-61" transform="translate(273.535156 0)"/>
      <use xlink:href="#DejaVuSans-Bold-74" transform="translate(341.015625 0)"/>
      <use xlink:href="#DejaVuSans-Bold-6f" transform="translate(388.818359 0)"/>
      <use xlink:href="#DejaVuSans-Bold-72" transform="translate(457.519531 0)"/>
      <use xlink:href="#DejaVuSans-Bold-20" transform="translate(506.835938 0)"/>
      <use xlink:href="#DejaVuSans-Bold-43" transform="translate(541.650391 0)"/>
      <use xlink:href="#DejaVuSans-Bold-6f" transform="translate(615.039062 0)"/>
      <use xlink:href="#DejaVuSans-Bold-6d" transform="translate(683.740234 0)"/>
      <use xlink:href="#DejaVuSans-Bold-62" transform="translate(787.939453 0)"/>
      <use xlink:href="#DejaVuSans-Bold-69" transform="translate(859.521484 0)"/>
      <use xlink:href="#DejaVuSans-Bold-6e" transform="translate(893.798828 0)"/>
      <use xlink:href="#DejaVuSans-Bold-61" transform="translate(964.990234 0)"/>
      <use xlink:href="#DejaVuSans-Bold-74" transform="translate(1032.470703 0)"/>
      <use xlink:href="#DejaVuSans-Bold-69" transform="translate(1080.273438 0)"/>
      <use xlink:href="#DejaVuSans-Bold-6f" transform="translate(1114.550781 0)"/>
      <use xlink:href="#DejaVuSans-Bold-6e" transform="translate(1183.251953 0)"/>
      <use xlink:href="#DejaVuSans-Bold-73" transform="translate(1254.443359 0)"/>
     </g>
    </g>
   </g>
   <g id="matplotlib.axis_2">
    <g id="ytick_1">
     <g id="line2d_21">
      <path d="M 45.716875 485.349309 
L 1066.386875 485.349309 
" clip-path="url(#pa6eb4a28f5)" style="fill: none; stroke-dasharray: 2.96,1.28; stroke-dashoffset: 0; stroke: #b0b0b0; stroke-opacity: 0.3; stroke-width: 0.8"/>
     </g>
     <g id="line2d_22">
      <defs>
       <path id="m3355d701a9" d="M 0 0 
L -3.5 0 
" style="stroke: #000000; stroke-width: 0.8"/>
      </defs>
      <g>
       <use xlink:href="#m3355d701a9" x="45.716875" y="485.349309" style="stroke: #000000; stroke-width: 0.8"/>
      </g>
     </g>
     <g id="text_22">
      <!-- 0.0 -->
      <g transform="translate(22.81375 489.148527) scale(0.1 -0.1)">
       <defs>
        <path id="DejaVuSans-30" d="M 2034 4250 
Q 1547 4250 1301 3770 
Q 1056 3291 1056 2328 
Q 1056 1369 1301 889 
Q 1547 409 2034 409 
Q 2525 409 2770 889 
Q 3016 1369 3016 2328 
Q 3016 3291 2770 3770 
Q 2525 4250 2034 4250 
z
M 2034 4750 
Q 2819 4750 3233 4129 
Q 3647 3509 3647 2328 
Q 3647 1150 3233 529 
Q 2819 -91 2034 -91 
Q 1250 -91 836 529 
Q 422 1150 422 2328 
Q 422 3509 836 4129 
Q 1250 4750 2034 4750 
z
" transform="scale(0.015625)"/>
        <path id="DejaVuSans-2e" d="M 684 794 
L 1344 794 
L 1344 0 
L 684 0 
L 684 794 
z
" transform="scale(0.015625)"/>
       </defs>
       <use xlink:href="#DejaVuSans-30"/>
       <use xlink:href="#DejaVuSans-2e" transform="translate(63.623047 0)"/>
       <use xlink:href="#DejaVuSans-30" transform="translate(95.410156 0)"/>
      </g>
     </g>
    </g>
    <g id="ytick_2">
     <g id="line2d_23">
      <path d="M 45.716875 407.691215 
L 1066.386875 407.691215 
" clip-path="url(#pa6eb4a28f5)" style="fill: none; stroke-dasharray: 2.96,1.28; stroke-dashoffset: 0; stroke: #b0b0b0; stroke-opacity: 0.3; stroke-width: 0.8"/>
     </g>
     <g id="line2d_24">
      <g>
       <use xlink:href="#m3355d701a9" x="45.716875" y="407.691215" style="stroke: #000000; stroke-width: 0.8"/>
      </g>
     </g>
     <g id="text_23">
      <!-- 0.5 -->
      <g transform="translate(22.81375 411.490434) scale(0.1 -0.1)">
       <defs>
        <path id="DejaVuSans-35" d="M 691 4666 
L 3169 4666 
L 3169 4134 
L 1269 4134 
L 1269 2991 
Q 1406 3038 1543 3061 
Q 1681 3084 1819 3084 
Q 2600 3084 3056 2656 
Q 3513 2228 3513 1497 
Q 3513 744 3044 326 
Q 2575 -91 1722 -91 
Q 1428 -91 1123 -41 
Q 819 9 494 109 
L 494 744 
Q 775 591 1075 516 
Q 1375 441 1709 441 
Q 2250 441 2565 725 
Q 2881 1009 2881 1497 
Q 2881 1984 2565 2268 
Q 2250 2553 1709 2553 
Q 1456 2553 1204 2497 
Q 953 2441 691 2322 
L 691 4666 
z
" transform="scale(0.015625)"/>
       </defs>
       <use xlink:href="#DejaVuSans-30"/>
       <use xlink:href="#DejaVuSans-2e" transform="translate(63.623047 0)"/>
       <use xlink:href="#DejaVuSans-35" transform="translate(95.410156 0)"/>
      </g>
     </g>
    </g>
    <g id="ytick_3">
     <g id="line2d_25">
      <path d="M 45.716875 330.033121 
L 1066.386875 330.033121 
" clip-path="url(#pa6eb4a28f5)" style="fill: none; stroke-dasharray: 2.96,1.28; stroke-dashoffset: 0; stroke: #b0b0b0; stroke-opacity: 0.3; stroke-width: 0.8"/>
     </g>
     <g id="line2d_26">
      <g>
       <use xlink:href="#m3355d701a9" x="45.716875" y="330.033121" style="stroke: #000000; stroke-width: 0.8"/>
      </g>
     </g>
     <g id="text_24">
      <!-- 1.0 -->
      <g transform="translate(22.81375 333.83234) scale(0.1 -0.1)">
       <defs>
        <path id="DejaVuSans-31" d="M 794 531 
L 1825 531 
L 1825 4091 
L 703 3866 
L 703 4441 
L 1819 4666 
L 2450 4666 
L 2450 531 
L 3481 531 
L 3481 0 
L 794 0 
L 794 531 
z
" transform="scale(0.015625)"/>
       </defs>
       <use xlink:href="#DejaVuSans-31"/>
       <use xlink:href="#DejaVuSans-2e" transform="translate(63.623047 0)"/>
       <use xlink:href="#DejaVuSans-30" transform="translate(95.410156 0)"/>
      </g>
     </g>
    </g>
    <g id="ytick_4">
     <g id="line2d_27">
      <path d="M 45.716875 252.375028 
L 1066.386875 252.375028 
" clip-path="url(#pa6eb4a28f5)" style="fill: none; stroke-dasharray: 2.96,1.28; stroke-dashoffset: 0; stroke: #b0b0b0; stroke-opacity: 0.3; stroke-width: 0.8"/>
     </g>
     <g id="line2d_28">
      <g>
       <use xlink:href="#m3355d701a9" x="45.716875" y="252.375028" style="stroke: #000000; stroke-width: 0.8"/>
      </g>
     </g>
     <g id="text_25">
      <!-- 1.5 -->
      <g transform="translate(22.81375 256.174247) scale(0.1 -0.1)">
       <use xlink:href="#DejaVuSans-31"/>
       <use xlink:href="#DejaVuSans-2e" transform="translate(63.623047 0)"/>
       <use xlink:href="#DejaVuSans-35" transform="translate(95.410156 0)"/>
      </g>
     </g>
    </g>
    <g id="ytick_5">
     <g id="line2d_29">
      <path d="M 45.716875 174.716934 
L 1066.386875 174.716934 
" clip-path="url(#pa6eb4a28f5)" style="fill: none; stroke-dasharray: 2.96,1.28; stroke-dashoffset: 0; stroke: #b0b0b0; stroke-opacity: 0.3; stroke-width: 0.8"/>
     </g>
     <g id="line2d_30">
      <g>
       <use xlink:href="#m3355d701a9" x="45.716875" y="174.716934" style="stroke: #000000; stroke-width: 0.8"/>
      </g>
     </g>
     <g id="text_26">
      <!-- 2.0 -->
      <g transform="translate(22.81375 178.516153) scale(0.1 -0.1)">
       <defs>
        <path id="DejaVuSans-32" d="M 1228 531 
L 3431 531 
L 3431 0 
L 469 0 
L 469 531 
Q 828 903 1448 1529 
Q 2069 2156 2228 2338 
Q 2531 2678 2651 2914 
Q 2772 3150 2772 3378 
Q 2772 3750 2511 3984 
Q 2250 4219 1831 4219 
Q 1534 4219 1204 4116 
Q 875 4013 500 3803 
L 500 4441 
Q 881 4594 1212 4672 
Q 1544 4750 1819 4750 
Q 2544 4750 2975 4387 
Q 3406 4025 3406 3419 
Q 3406 3131 3298 2873 
Q 3191 2616 2906 2266 
Q 2828 2175 2409 1742 
Q 1991 1309 1228 531 
z
" transform="scale(0.015625)"/>
       </defs>
       <use xlink:href="#DejaVuSans-32"/>
       <use xlink:href="#DejaVuSans-2e" transform="translate(63.623047 0)"/>
       <use xlink:href="#DejaVuSans-30" transform="translate(95.410156 0)"/>
      </g>
     </g>
    </g>
    <g id="ytick_6">
     <g id="line2d_31">
      <path d="M 45.716875 97.058841 
L 1066.386875 97.058841 
" clip-path="url(#pa6eb4a28f5)" style="fill: none; stroke-dasharray: 2.96,1.28; stroke-dashoffset: 0; stroke: #b0b0b0; stroke-opacity: 0.3; stroke-width: 0.8"/>
     </g>
     <g id="line2d_32">
      <g>
       <use xlink:href="#m3355d701a9" x="45.716875" y="97.058841" style="stroke: #000000; stroke-width: 0.8"/>
      </g>
     </g>
     <g id="text_27">
      <!-- 2.5 -->
      <g transform="translate(22.81375 100.85806) scale(0.1 -0.1)">
       <use xlink:href="#DejaVuSans-32"/>
       <use xlink:href="#DejaVuSans-2e" transform="translate(63.623047 0)"/>
       <use xlink:href="#DejaVuSans-35" transform="translate(95.410156 0)"/>
      </g>
     </g>
    </g>
    <g id="text_28">
     <!-- Number of Gene Pairs -->
     <g transform="translate(16.318125 336.430904) rotate(-90) scale(0.12 -0.12)">
      <defs>
       <path id="DejaVuSans-Bold-4e" d="M 588 4666 
L 1931 4666 
L 3628 1466 
L 3628 4666 
L 4769 4666 
L 4769 0 
L 3425 0 
L 1728 3200 
L 1728 0 
L 588 0 
L 588 4666 
z
" transform="scale(0.015625)"/>
       <path id="DejaVuSans-Bold-75" d="M 500 1363 
L 500 3500 
L 1625 3500 
L 1625 3150 
Q 1625 2866 1622 2436 
Q 1619 2006 1619 1863 
Q 1619 1441 1641 1255 
Q 1663 1069 1716 984 
Q 1784 875 1895 815 
Q 2006 756 2150 756 
Q 2500 756 2700 1025 
Q 2900 1294 2900 1772 
L 2900 3500 
L 4019 3500 
L 4019 0 
L 2900 0 
L 2900 506 
Q 2647 200 2364 54 
Q 2081 -91 1741 -91 
Q 1134 -91 817 281 
Q 500 653 500 1363 
z
" transform="scale(0.015625)"/>
       <path id="DejaVuSans-Bold-65" d="M 4031 1759 
L 4031 1441 
L 1416 1441 
Q 1456 1047 1700 850 
Q 1944 653 2381 653 
Q 2734 653 3104 758 
Q 3475 863 3866 1075 
L 3866 213 
Q 3469 63 3072 -14 
Q 2675 -91 2278 -91 
Q 1328 -91 801 392 
Q 275 875 275 1747 
Q 275 2603 792 3093 
Q 1309 3584 2216 3584 
Q 3041 3584 3536 3087 
Q 4031 2591 4031 1759 
z
M 2881 2131 
Q 2881 2450 2695 2645 
Q 2509 2841 2209 2841 
Q 1884 2841 1681 2658 
Q 1478 2475 1428 2131 
L 2881 2131 
z
" transform="scale(0.015625)"/>
       <path id="DejaVuSans-Bold-66" d="M 2841 4863 
L 2841 4128 
L 2222 4128 
Q 1984 4128 1890 4042 
Q 1797 3956 1797 3744 
L 1797 3500 
L 2753 3500 
L 2753 2700 
L 1797 2700 
L 1797 0 
L 678 0 
L 678 2700 
L 122 2700 
L 122 3500 
L 678 3500 
L 678 3744 
Q 678 4316 997 4589 
Q 1316 4863 1984 4863 
L 2841 4863 
z
" transform="scale(0.015625)"/>
       <path id="DejaVuSans-Bold-47" d="M 4781 347 
Q 4331 128 3847 18 
Q 3363 -91 2847 -91 
Q 1681 -91 1000 561 
Q 319 1213 319 2328 
Q 319 3456 1012 4103 
Q 1706 4750 2913 4750 
Q 3378 4750 3804 4662 
Q 4231 4575 4609 4403 
L 4609 3438 
Q 4219 3659 3833 3768 
Q 3447 3878 3059 3878 
Q 2341 3878 1952 3476 
Q 1563 3075 1563 2328 
Q 1563 1588 1938 1184 
Q 2313 781 3003 781 
Q 3191 781 3352 804 
Q 3513 828 3641 878 
L 3641 1784 
L 2906 1784 
L 2906 2591 
L 4781 2591 
L 4781 347 
z
" transform="scale(0.015625)"/>
       <path id="DejaVuSans-Bold-50" d="M 588 4666 
L 2584 4666 
Q 3475 4666 3951 4270 
Q 4428 3875 4428 3144 
Q 4428 2409 3951 2014 
Q 3475 1619 2584 1619 
L 1791 1619 
L 1791 0 
L 588 0 
L 588 4666 
z
M 1791 3794 
L 1791 2491 
L 2456 2491 
Q 2806 2491 2997 2661 
Q 3188 2831 3188 3144 
Q 3188 3456 2997 3625 
Q 2806 3794 2456 3794 
L 1791 3794 
z
" transform="scale(0.015625)"/>
      </defs>
      <use xlink:href="#DejaVuSans-Bold-4e"/>
      <use xlink:href="#DejaVuSans-Bold-75" transform="translate(83.691406 0)"/>
      <use xlink:href="#DejaVuSans-Bold-6d" transform="translate(154.882812 0)"/>
      <use xlink:href="#DejaVuSans-Bold-62" transform="translate(259.082031 0)"/>
      <use xlink:href="#DejaVuSans-Bold-65" transform="translate(330.664062 0)"/>
      <use xlink:href="#DejaVuSans-Bold-72" transform="translate(398.486328 0)"/>
      <use xlink:href="#DejaVuSans-Bold-20" transform="translate(447.802734 0)"/>
      <use xlink:href="#DejaVuSans-Bold-6f" transform="translate(482.617188 0)"/>
      <use xlink:href="#DejaVuSans-Bold-66" transform="translate(551.318359 0)"/>
      <use xlink:href="#DejaVuSans-Bold-20" transform="translate(594.824219 0)"/>
      <use xlink:href="#DejaVuSans-Bold-47" transform="translate(629.638672 0)"/>
      <use xlink:href="#DejaVuSans-Bold-65" transform="translate(711.71875 0)"/>
      <use xlink:href="#DejaVuSans-Bold-6e" transform="translate(779.541016 0)"/>
      <use xlink:href="#DejaVuSans-Bold-65" transform="translate(850.732422 0)"/>
      <use xlink:href="#DejaVuSans-Bold-20" transform="translate(918.554688 0)"/>
      <use xlink:href="#DejaVuSans-Bold-50" transform="translate(953.369141 0)"/>
      <use xlink:href="#DejaVuSans-Bold-61" transform="translate(1024.035156 0)"/>
      <use xlink:href="#DejaVuSans-Bold-69" transform="translate(1091.515625 0)"/>
      <use xlink:href="#DejaVuSans-Bold-72" transform="translate(1125.792969 0)"/>
      <use xlink:href="#DejaVuSans-Bold-73" transform="translate(1175.109375 0)"/>
     </g>
    </g>
    <g id="text_29">
     <!-- 1e8 -->
     <g transform="translate(45.716875 36.3575) scale(0.1 -0.1)">
      <defs>
       <path id="DejaVuSans-38" d="M 2034 2216 
Q 1584 2216 1326 1975 
Q 1069 1734 1069 1313 
Q 1069 891 1326 650 
Q 1584 409 2034 409 
Q 2484 409 2743 651 
Q 3003 894 3003 1313 
Q 3003 1734 2745 1975 
Q 2488 2216 2034 2216 
z
M 1403 2484 
Q 997 2584 770 2862 
Q 544 3141 544 3541 
Q 544 4100 942 4425 
Q 1341 4750 2034 4750 
Q 2731 4750 3128 4425 
Q 3525 4100 3525 3541 
Q 3525 3141 3298 2862 
Q 3072 2584 2669 2484 
Q 3125 2378 3379 2068 
Q 3634 1759 3634 1313 
Q 3634 634 3220 271 
Q 2806 -91 2034 -91 
Q 1263 -91 848 271 
Q 434 634 434 1313 
Q 434 1759 690 2068 
Q 947 2378 1403 2484 
z
M 1172 3481 
Q 1172 3119 1398 2916 
Q 1625 2713 2034 2713 
Q 2441 2713 2670 2916 
Q 2900 3119 2900 3481 
Q 2900 3844 2670 4047 
Q 2441 4250 2034 4250 
Q 1625 4250 1398 4047 
Q 1172 3844 1172 3481 
z
" transform="scale(0.015625)"/>
      </defs>
      <use xlink:href="#DejaVuSans-31"/>
      <use xlink:href="#DejaVuSans-65" transform="translate(63.623047 0)"/>
      <use xlink:href="#DejaVuSans-38" transform="translate(125.146484 0)"/>
     </g>
    </g>
   </g>
   <g id="patch_23">
    <path d="M 45.716875 485.349309 
L 45.716875 39.3575 
" style="fill: none; stroke: #000000; stroke-width: 0.8; stroke-linejoin: miter; stroke-linecap: square"/>
   </g>
   <g id="patch_24">
    <path d="M 1066.386875 485.349309 
L 1066.386875 39.3575 
" style="fill: none; stroke: #000000; stroke-width: 0.8; stroke-linejoin: miter; stroke-linecap: square"/>
   </g>
   <g id="patch_25">
    <path d="M 45.716875 485.349309 
L 1066.386875 485.349309 
" style="fill: none; stroke: #000000; stroke-width: 0.8; stroke-linejoin: miter; stroke-linecap: square"/>
   </g>
   <g id="patch_26">
    <path d="M 45.716875 39.3575 
L 1066.386875 39.3575 
" style="fill: none; stroke: #000000; stroke-width: 0.8; stroke-linejoin: miter; stroke-linecap: square"/>
   </g>
   <g id="text_30">
    <!-- 273M -->
    <g transform="translate(95.443553 54.267977) scale(0.1 -0.1)">
     <defs>
      <path id="DejaVuSans-Bold-32" d="M 1844 884 
L 3897 884 
L 3897 0 
L 506 0 
L 506 884 
L 2209 2388 
Q 2438 2594 2547 2791 
Q 2656 2988 2656 3200 
Q 2656 3528 2436 3728 
Q 2216 3928 1850 3928 
Q 1569 3928 1234 3808 
Q 900 3688 519 3450 
L 519 4475 
Q 925 4609 1322 4679 
Q 1719 4750 2100 4750 
Q 2938 4750 3402 4381 
Q 3866 4013 3866 3353 
Q 3866 2972 3669 2642 
Q 3472 2313 2841 1759 
L 1844 884 
z
" transform="scale(0.015625)"/>
      <path id="DejaVuSans-Bold-37" d="M 428 4666 
L 3944 4666 
L 3944 3988 
L 2125 0 
L 953 0 
L 2675 3781 
L 428 3781 
L 428 4666 
z
" transform="scale(0.015625)"/>
      <path id="DejaVuSans-Bold-33" d="M 2981 2516 
Q 3453 2394 3698 2092 
Q 3944 1791 3944 1325 
Q 3944 631 3412 270 
Q 2881 -91 1863 -91 
Q 1503 -91 1142 -33 
Q 781 25 428 141 
L 428 1069 
Q 766 900 1098 814 
Q 1431 728 1753 728 
Q 2231 728 2486 893 
Q 2741 1059 2741 1369 
Q 2741 1688 2480 1852 
Q 2219 2016 1709 2016 
L 1228 2016 
L 1228 2791 
L 1734 2791 
Q 2188 2791 2409 2933 
Q 2631 3075 2631 3366 
Q 2631 3634 2415 3781 
Q 2200 3928 1806 3928 
Q 1516 3928 1219 3862 
Q 922 3797 628 3669 
L 628 4550 
Q 984 4650 1334 4700 
Q 1684 4750 2022 4750 
Q 2931 4750 3382 4451 
Q 3834 4153 3834 3553 
Q 3834 3144 3618 2883 
Q 3403 2622 2981 2516 
z
" transform="scale(0.015625)"/>
      <path id="DejaVuSans-Bold-4d" d="M 588 4666 
L 2119 4666 
L 3181 2169 
L 4250 4666 
L 5778 4666 
L 5778 0 
L 4641 0 
L 4641 3413 
L 3566 897 
L 2803 897 
L 1728 3413 
L 1728 0 
L 588 0 
L 588 4666 
z
" transform="scale(0.015625)"/>
     </defs>
     <use xlink:href="#DejaVuSans-Bold-32"/>
     <use xlink:href="#DejaVuSans-Bold-37" transform="translate(69.580078 0)"/>
     <use xlink:href="#DejaVuSans-Bold-33" transform="translate(139.160156 0)"/>
     <use xlink:href="#DejaVuSans-Bold-4d" transform="translate(208.740234 0)"/>
    </g>
   </g>
   <g id="text_31">
    <!-- 32.6% -->
    <g style="fill: #808080" transform="translate(94.972459 41.525354) scale(0.1 -0.1)">
     <defs>
      <path id="DejaVuSans-33" d="M 2597 2516 
Q 3050 2419 3304 2112 
Q 3559 1806 3559 1356 
Q 3559 666 3084 287 
Q 2609 -91 1734 -91 
Q 1441 -91 1130 -33 
Q 819 25 488 141 
L 488 750 
Q 750 597 1062 519 
Q 1375 441 1716 441 
Q 2309 441 2620 675 
Q 2931 909 2931 1356 
Q 2931 1769 2642 2001 
Q 2353 2234 1838 2234 
L 1294 2234 
L 1294 2753 
L 1863 2753 
Q 2328 2753 2575 2939 
Q 2822 3125 2822 3475 
Q 2822 3834 2567 4026 
Q 2313 4219 1838 4219 
Q 1578 4219 1281 4162 
Q 984 4106 628 3988 
L 628 4550 
Q 988 4650 1302 4700 
Q 1616 4750 1894 4750 
Q 2613 4750 3031 4423 
Q 3450 4097 3450 3541 
Q 3450 3153 3228 2886 
Q 3006 2619 2597 2516 
z
" transform="scale(0.015625)"/>
      <path id="DejaVuSans-36" d="M 2113 2584 
Q 1688 2584 1439 2293 
Q 1191 2003 1191 1497 
Q 1191 994 1439 701 
Q 1688 409 2113 409 
Q 2538 409 2786 701 
Q 3034 994 3034 1497 
Q 3034 2003 2786 2293 
Q 2538 2584 2113 2584 
z
M 3366 4563 
L 3366 3988 
Q 3128 4100 2886 4159 
Q 2644 4219 2406 4219 
Q 1781 4219 1451 3797 
Q 1122 3375 1075 2522 
Q 1259 2794 1537 2939 
Q 1816 3084 2150 3084 
Q 2853 3084 3261 2657 
Q 3669 2231 3669 1497 
Q 3669 778 3244 343 
Q 2819 -91 2113 -91 
Q 1303 -91 875 529 
Q 447 1150 447 2328 
Q 447 3434 972 4092 
Q 1497 4750 2381 4750 
Q 2619 4750 2861 4703 
Q 3103 4656 3366 4563 
z
" transform="scale(0.015625)"/>
      <path id="DejaVuSans-25" d="M 4653 2053 
Q 4381 2053 4226 1822 
Q 4072 1591 4072 1178 
Q 4072 772 4226 539 
Q 4381 306 4653 306 
Q 4919 306 5073 539 
Q 5228 772 5228 1178 
Q 5228 1588 5073 1820 
Q 4919 2053 4653 2053 
z
M 4653 2450 
Q 5147 2450 5437 2106 
Q 5728 1763 5728 1178 
Q 5728 594 5436 251 
Q 5144 -91 4653 -91 
Q 4153 -91 3862 251 
Q 3572 594 3572 1178 
Q 3572 1766 3864 2108 
Q 4156 2450 4653 2450 
z
M 1428 4353 
Q 1159 4353 1004 4120 
Q 850 3888 850 3481 
Q 850 3069 1003 2837 
Q 1156 2606 1428 2606 
Q 1700 2606 1854 2837 
Q 2009 3069 2009 3481 
Q 2009 3884 1853 4118 
Q 1697 4353 1428 4353 
z
M 4250 4750 
L 4750 4750 
L 1831 -91 
L 1331 -91 
L 4250 4750 
z
M 1428 4750 
Q 1922 4750 2215 4408 
Q 2509 4066 2509 3481 
Q 2509 2891 2217 2550 
Q 1925 2209 1428 2209 
Q 931 2209 642 2551 
Q 353 2894 353 3481 
Q 353 4063 643 4406 
Q 934 4750 1428 4750 
z
" transform="scale(0.015625)"/>
     </defs>
     <use xlink:href="#DejaVuSans-33"/>
     <use xlink:href="#DejaVuSans-32" transform="translate(63.623047 0)"/>
     <use xlink:href="#DejaVuSans-2e" transform="translate(127.246094 0)"/>
     <use xlink:href="#DejaVuSans-36" transform="translate(159.033203 0)"/>
     <use xlink:href="#DejaVuSans-25" transform="translate(222.65625 0)"/>
    </g>
   </g>
   <g id="text_32">
    <!-- 16.6M -->
    <g transform="translate(140.407052 453.228497) scale(0.1 -0.1)">
     <defs>
      <path id="DejaVuSans-Bold-31" d="M 750 831 
L 1813 831 
L 1813 3847 
L 722 3622 
L 722 4441 
L 1806 4666 
L 2950 4666 
L 2950 831 
L 4013 831 
L 4013 0 
L 750 0 
L 750 831 
z
" transform="scale(0.015625)"/>
      <path id="DejaVuSans-Bold-36" d="M 2316 2303 
Q 2000 2303 1842 2098 
Q 1684 1894 1684 1484 
Q 1684 1075 1842 870 
Q 2000 666 2316 666 
Q 2634 666 2792 870 
Q 2950 1075 2950 1484 
Q 2950 1894 2792 2098 
Q 2634 2303 2316 2303 
z
M 3803 4544 
L 3803 3681 
Q 3506 3822 3243 3889 
Q 2981 3956 2731 3956 
Q 2194 3956 1894 3657 
Q 1594 3359 1544 2772 
Q 1750 2925 1990 3001 
Q 2231 3078 2516 3078 
Q 3231 3078 3670 2659 
Q 4109 2241 4109 1563 
Q 4109 813 3618 361 
Q 3128 -91 2303 -91 
Q 1394 -91 895 523 
Q 397 1138 397 2266 
Q 397 3422 980 4083 
Q 1563 4744 2578 4744 
Q 2900 4744 3203 4694 
Q 3506 4644 3803 4544 
z
" transform="scale(0.015625)"/>
      <path id="DejaVuSans-Bold-2e" d="M 653 1209 
L 1778 1209 
L 1778 0 
L 653 0 
L 653 1209 
z
" transform="scale(0.015625)"/>
     </defs>
     <use xlink:href="#DejaVuSans-Bold-31"/>
     <use xlink:href="#DejaVuSans-Bold-36" transform="translate(69.580078 0)"/>
     <use xlink:href="#DejaVuSans-Bold-2e" transform="translate(139.160156 0)"/>
     <use xlink:href="#DejaVuSans-Bold-36" transform="translate(177.148438 0)"/>
     <use xlink:href="#DejaVuSans-Bold-4d" transform="translate(246.728516 0)"/>
    </g>
   </g>
   <g id="text_33">
    <!-- 2.0% -->
    <g style="fill: #808080" transform="translate(145.016427 440.485874) scale(0.1 -0.1)">
     <use xlink:href="#DejaVuSans-32"/>
     <use xlink:href="#DejaVuSans-2e" transform="translate(63.623047 0)"/>
     <use xlink:href="#DejaVuSans-30" transform="translate(95.410156 0)"/>
     <use xlink:href="#DejaVuSans-25" transform="translate(159.033203 0)"/>
    </g>
   </g>
   <g id="text_34">
    <!-- 36.4M -->
    <g transform="translate(187.269771 422.507659) scale(0.1 -0.1)">
     <defs>
      <path id="DejaVuSans-Bold-34" d="M 2356 3675 
L 1038 1722 
L 2356 1722 
L 2356 3675 
z
M 2156 4666 
L 3494 4666 
L 3494 1722 
L 4159 1722 
L 4159 850 
L 3494 850 
L 3494 0 
L 2356 0 
L 2356 850 
L 288 850 
L 288 1881 
L 2156 4666 
z
" transform="scale(0.015625)"/>
     </defs>
     <use xlink:href="#DejaVuSans-Bold-33"/>
     <use xlink:href="#DejaVuSans-Bold-36" transform="translate(69.580078 0)"/>
     <use xlink:href="#DejaVuSans-Bold-2e" transform="translate(139.160156 0)"/>
     <use xlink:href="#DejaVuSans-Bold-34" transform="translate(177.148438 0)"/>
     <use xlink:href="#DejaVuSans-Bold-4d" transform="translate(246.728516 0)"/>
    </g>
   </g>
   <g id="text_35">
    <!-- 4.3% -->
    <g style="fill: #808080" transform="translate(191.879146 409.765036) scale(0.1 -0.1)">
     <defs>
      <path id="DejaVuSans-34" d="M 2419 4116 
L 825 1625 
L 2419 1625 
L 2419 4116 
z
M 2253 4666 
L 3047 4666 
L 3047 1625 
L 3713 1625 
L 3713 1100 
L 3047 1100 
L 3047 0 
L 2419 0 
L 2419 1100 
L 313 1100 
L 313 1709 
L 2253 4666 
z
" transform="scale(0.015625)"/>
     </defs>
     <use xlink:href="#DejaVuSans-34"/>
     <use xlink:href="#DejaVuSans-2e" transform="translate(63.623047 0)"/>
     <use xlink:href="#DejaVuSans-33" transform="translate(95.410156 0)"/>
     <use xlink:href="#DejaVuSans-25" transform="translate(159.033203 0)"/>
    </g>
   </g>
   <g id="text_36">
    <!-- 72.7M -->
    <g transform="translate(234.132489 366.136703) scale(0.1 -0.1)">
     <use xlink:href="#DejaVuSans-Bold-37"/>
     <use xlink:href="#DejaVuSans-Bold-32" transform="translate(69.580078 0)"/>
     <use xlink:href="#DejaVuSans-Bold-2e" transform="translate(139.160156 0)"/>
     <use xlink:href="#DejaVuSans-Bold-37" transform="translate(177.148438 0)"/>
     <use xlink:href="#DejaVuSans-Bold-4d" transform="translate(246.728516 0)"/>
    </g>
   </g>
   <g id="text_37">
    <!-- 8.7% -->
    <g style="fill: #808080" transform="translate(238.741864 353.39408) scale(0.1 -0.1)">
     <defs>
      <path id="DejaVuSans-37" d="M 525 4666 
L 3525 4666 
L 3525 4397 
L 1831 0 
L 1172 0 
L 2766 4134 
L 525 4134 
L 525 4666 
z
" transform="scale(0.015625)"/>
     </defs>
     <use xlink:href="#DejaVuSans-38"/>
     <use xlink:href="#DejaVuSans-2e" transform="translate(63.623047 0)"/>
     <use xlink:href="#DejaVuSans-37" transform="translate(95.410156 0)"/>
     <use xlink:href="#DejaVuSans-25" transform="translate(159.033203 0)"/>
    </g>
   </g>
   <g id="text_38">
    <!-- 35.8M -->
    <g transform="translate(280.995207 423.440747) scale(0.1 -0.1)">
     <defs>
      <path id="DejaVuSans-Bold-35" d="M 678 4666 
L 3669 4666 
L 3669 3781 
L 1638 3781 
L 1638 3059 
Q 1775 3097 1914 3117 
Q 2053 3138 2203 3138 
Q 3056 3138 3531 2711 
Q 4006 2284 4006 1522 
Q 4006 766 3489 337 
Q 2972 -91 2053 -91 
Q 1656 -91 1267 -14 
Q 878 63 494 219 
L 494 1166 
Q 875 947 1217 837 
Q 1559 728 1863 728 
Q 2300 728 2551 942 
Q 2803 1156 2803 1522 
Q 2803 1891 2551 2103 
Q 2300 2316 1863 2316 
Q 1603 2316 1309 2248 
Q 1016 2181 678 2041 
L 678 4666 
z
" transform="scale(0.015625)"/>
      <path id="DejaVuSans-Bold-38" d="M 2228 2088 
Q 1891 2088 1709 1903 
Q 1528 1719 1528 1375 
Q 1528 1031 1709 848 
Q 1891 666 2228 666 
Q 2563 666 2741 848 
Q 2919 1031 2919 1375 
Q 2919 1722 2741 1905 
Q 2563 2088 2228 2088 
z
M 1350 2484 
Q 925 2613 709 2878 
Q 494 3144 494 3541 
Q 494 4131 934 4440 
Q 1375 4750 2228 4750 
Q 3075 4750 3515 4442 
Q 3956 4134 3956 3541 
Q 3956 3144 3739 2878 
Q 3522 2613 3097 2484 
Q 3572 2353 3814 2058 
Q 4056 1763 4056 1313 
Q 4056 619 3595 264 
Q 3134 -91 2228 -91 
Q 1319 -91 855 264 
Q 391 619 391 1313 
Q 391 1763 633 2058 
Q 875 2353 1350 2484 
z
M 1631 3419 
Q 1631 3141 1786 2991 
Q 1941 2841 2228 2841 
Q 2509 2841 2662 2991 
Q 2816 3141 2816 3419 
Q 2816 3697 2662 3845 
Q 2509 3994 2228 3994 
Q 1941 3994 1786 3844 
Q 1631 3694 1631 3419 
z
" transform="scale(0.015625)"/>
     </defs>
     <use xlink:href="#DejaVuSans-Bold-33"/>
     <use xlink:href="#DejaVuSans-Bold-35" transform="translate(69.580078 0)"/>
     <use xlink:href="#DejaVuSans-Bold-2e" transform="translate(139.160156 0)"/>
     <use xlink:href="#DejaVuSans-Bold-38" transform="translate(177.148438 0)"/>
     <use xlink:href="#DejaVuSans-Bold-4d" transform="translate(246.728516 0)"/>
    </g>
   </g>
   <g id="text_39">
    <!-- 4.3% -->
    <g style="fill: #808080" transform="translate(285.604582 410.698124) scale(0.1 -0.1)">
     <use xlink:href="#DejaVuSans-34"/>
     <use xlink:href="#DejaVuSans-2e" transform="translate(63.623047 0)"/>
     <use xlink:href="#DejaVuSans-33" transform="translate(95.410156 0)"/>
     <use xlink:href="#DejaVuSans-25" transform="translate(159.033203 0)"/>
    </g>
   </g>
   <g id="text_40">
    <!-- 59.2M -->
    <g transform="translate(327.857925 387.083859) scale(0.1 -0.1)">
     <defs>
      <path id="DejaVuSans-Bold-39" d="M 641 103 
L 641 966 
Q 928 831 1190 764 
Q 1453 697 1709 697 
Q 2247 697 2547 995 
Q 2847 1294 2900 1881 
Q 2688 1725 2447 1647 
Q 2206 1569 1925 1569 
Q 1209 1569 770 1986 
Q 331 2403 331 3084 
Q 331 3838 820 4291 
Q 1309 4744 2131 4744 
Q 3044 4744 3544 4128 
Q 4044 3513 4044 2388 
Q 4044 1231 3459 570 
Q 2875 -91 1856 -91 
Q 1528 -91 1228 -42 
Q 928 6 641 103 
z
M 2125 2350 
Q 2441 2350 2600 2554 
Q 2759 2759 2759 3169 
Q 2759 3575 2600 3781 
Q 2441 3988 2125 3988 
Q 1809 3988 1650 3781 
Q 1491 3575 1491 3169 
Q 1491 2759 1650 2554 
Q 1809 2350 2125 2350 
z
" transform="scale(0.015625)"/>
     </defs>
     <use xlink:href="#DejaVuSans-Bold-35"/>
     <use xlink:href="#DejaVuSans-Bold-39" transform="translate(69.580078 0)"/>
     <use xlink:href="#DejaVuSans-Bold-2e" transform="translate(139.160156 0)"/>
     <use xlink:href="#DejaVuSans-Bold-32" transform="translate(177.148438 0)"/>
     <use xlink:href="#DejaVuSans-Bold-4d" transform="translate(246.728516 0)"/>
    </g>
   </g>
   <g id="text_41">
    <!-- 7.1% -->
    <g style="fill: #808080" transform="translate(332.4673 374.341236) scale(0.1 -0.1)">
     <use xlink:href="#DejaVuSans-37"/>
     <use xlink:href="#DejaVuSans-2e" transform="translate(63.623047 0)"/>
     <use xlink:href="#DejaVuSans-31" transform="translate(95.410156 0)"/>
     <use xlink:href="#DejaVuSans-25" transform="translate(159.033203 0)"/>
    </g>
   </g>
   <g id="text_42">
    <!-- 79.3M -->
    <g transform="translate(374.720643 355.802993) scale(0.1 -0.1)">
     <use xlink:href="#DejaVuSans-Bold-37"/>
     <use xlink:href="#DejaVuSans-Bold-39" transform="translate(69.580078 0)"/>
     <use xlink:href="#DejaVuSans-Bold-2e" transform="translate(139.160156 0)"/>
     <use xlink:href="#DejaVuSans-Bold-33" transform="translate(177.148438 0)"/>
     <use xlink:href="#DejaVuSans-Bold-4d" transform="translate(246.728516 0)"/>
    </g>
   </g>
   <g id="text_43">
    <!-- 9.5% -->
    <g style="fill: #808080" transform="translate(379.330018 343.060369) scale(0.1 -0.1)">
     <defs>
      <path id="DejaVuSans-39" d="M 703 97 
L 703 672 
Q 941 559 1184 500 
Q 1428 441 1663 441 
Q 2288 441 2617 861 
Q 2947 1281 2994 2138 
Q 2813 1869 2534 1725 
Q 2256 1581 1919 1581 
Q 1219 1581 811 2004 
Q 403 2428 403 3163 
Q 403 3881 828 4315 
Q 1253 4750 1959 4750 
Q 2769 4750 3195 4129 
Q 3622 3509 3622 2328 
Q 3622 1225 3098 567 
Q 2575 -91 1691 -91 
Q 1453 -91 1209 -44 
Q 966 3 703 97 
z
M 1959 2075 
Q 2384 2075 2632 2365 
Q 2881 2656 2881 3163 
Q 2881 3666 2632 3958 
Q 2384 4250 1959 4250 
Q 1534 4250 1286 3958 
Q 1038 3666 1038 3163 
Q 1038 2656 1286 2365 
Q 1534 2075 1959 2075 
z
" transform="scale(0.015625)"/>
     </defs>
     <use xlink:href="#DejaVuSans-39"/>
     <use xlink:href="#DejaVuSans-2e" transform="translate(63.623047 0)"/>
     <use xlink:href="#DejaVuSans-35" transform="translate(95.410156 0)"/>
     <use xlink:href="#DejaVuSans-25" transform="translate(159.033203 0)"/>
    </g>
   </g>
   <g id="text_44">
    <!-- 199M -->
    <g transform="translate(423.48258 170.587295) scale(0.1 -0.1)">
     <use xlink:href="#DejaVuSans-Bold-31"/>
     <use xlink:href="#DejaVuSans-Bold-39" transform="translate(69.580078 0)"/>
     <use xlink:href="#DejaVuSans-Bold-39" transform="translate(139.160156 0)"/>
     <use xlink:href="#DejaVuSans-Bold-4d" transform="translate(208.740234 0)"/>
    </g>
   </g>
   <g id="text_45">
    <!-- 23.7% -->
    <g style="fill: #808080" transform="translate(423.011486 157.844672) scale(0.1 -0.1)">
     <use xlink:href="#DejaVuSans-32"/>
     <use xlink:href="#DejaVuSans-33" transform="translate(63.623047 0)"/>
     <use xlink:href="#DejaVuSans-2e" transform="translate(127.246094 0)"/>
     <use xlink:href="#DejaVuSans-37" transform="translate(159.033203 0)"/>
     <use xlink:href="#DejaVuSans-25" transform="translate(222.65625 0)"/>
    </g>
   </g>
   <g id="text_46">
    <!-- 28.8M -->
    <g transform="translate(468.446079 434.281763) scale(0.1 -0.1)">
     <use xlink:href="#DejaVuSans-Bold-32"/>
     <use xlink:href="#DejaVuSans-Bold-38" transform="translate(69.580078 0)"/>
     <use xlink:href="#DejaVuSans-Bold-2e" transform="translate(139.160156 0)"/>
     <use xlink:href="#DejaVuSans-Bold-38" transform="translate(177.148438 0)"/>
     <use xlink:href="#DejaVuSans-Bold-4d" transform="translate(246.728516 0)"/>
    </g>
   </g>
   <g id="text_47">
    <!-- 3.4% -->
    <g style="fill: #808080" transform="translate(473.055454 421.53914) scale(0.1 -0.1)">
     <use xlink:href="#DejaVuSans-33"/>
     <use xlink:href="#DejaVuSans-2e" transform="translate(63.623047 0)"/>
     <use xlink:href="#DejaVuSans-34" transform="translate(95.410156 0)"/>
     <use xlink:href="#DejaVuSans-25" transform="translate(159.033203 0)"/>
    </g>
   </g>
   <g id="text_48">
    <!-- 4.75M -->
    <g transform="translate(515.308797 471.647882) scale(0.1 -0.1)">
     <use xlink:href="#DejaVuSans-Bold-34"/>
     <use xlink:href="#DejaVuSans-Bold-2e" transform="translate(69.580078 0)"/>
     <use xlink:href="#DejaVuSans-Bold-37" transform="translate(107.568359 0)"/>
     <use xlink:href="#DejaVuSans-Bold-35" transform="translate(177.148438 0)"/>
     <use xlink:href="#DejaVuSans-Bold-4d" transform="translate(246.728516 0)"/>
    </g>
   </g>
   <g id="text_49">
    <!-- 0.6% -->
    <g style="fill: #808080" transform="translate(519.918172 458.905259) scale(0.1 -0.1)">
     <use xlink:href="#DejaVuSans-30"/>
     <use xlink:href="#DejaVuSans-2e" transform="translate(63.623047 0)"/>
     <use xlink:href="#DejaVuSans-36" transform="translate(95.410156 0)"/>
     <use xlink:href="#DejaVuSans-25" transform="translate(159.033203 0)"/>
    </g>
   </g>
   <g id="text_50">
    <!-- 6.12M -->
    <g transform="translate(562.171515 469.516687) scale(0.1 -0.1)">
     <use xlink:href="#DejaVuSans-Bold-36"/>
     <use xlink:href="#DejaVuSans-Bold-2e" transform="translate(69.580078 0)"/>
     <use xlink:href="#DejaVuSans-Bold-31" transform="translate(107.568359 0)"/>
     <use xlink:href="#DejaVuSans-Bold-32" transform="translate(177.148438 0)"/>
     <use xlink:href="#DejaVuSans-Bold-4d" transform="translate(246.728516 0)"/>
    </g>
   </g>
   <g id="text_51">
    <!-- 0.7% -->
    <g style="fill: #808080" transform="translate(566.78089 456.774064) scale(0.1 -0.1)">
     <use xlink:href="#DejaVuSans-30"/>
     <use xlink:href="#DejaVuSans-2e" transform="translate(63.623047 0)"/>
     <use xlink:href="#DejaVuSans-37" transform="translate(95.410156 0)"/>
     <use xlink:href="#DejaVuSans-25" transform="translate(159.033203 0)"/>
    </g>
   </g>
   <g id="text_52">
    <!-- 601K -->
    <g transform="translate(612.035015 478.089369) scale(0.1 -0.1)">
     <defs>
      <path id="DejaVuSans-Bold-30" d="M 2944 2338 
Q 2944 3213 2780 3570 
Q 2616 3928 2228 3928 
Q 1841 3928 1675 3570 
Q 1509 3213 1509 2338 
Q 1509 1453 1675 1090 
Q 1841 728 2228 728 
Q 2613 728 2778 1090 
Q 2944 1453 2944 2338 
z
M 4147 2328 
Q 4147 1169 3647 539 
Q 3147 -91 2228 -91 
Q 1306 -91 806 539 
Q 306 1169 306 2328 
Q 306 3491 806 4120 
Q 1306 4750 2228 4750 
Q 3147 4750 3647 4120 
Q 4147 3491 4147 2328 
z
" transform="scale(0.015625)"/>
      <path id="DejaVuSans-Bold-4b" d="M 588 4666 
L 1791 4666 
L 1791 2963 
L 3525 4666 
L 4922 4666 
L 2675 2456 
L 5153 0 
L 3647 0 
L 1791 1838 
L 1791 0 
L 588 0 
L 588 4666 
z
" transform="scale(0.015625)"/>
     </defs>
     <use xlink:href="#DejaVuSans-Bold-36"/>
     <use xlink:href="#DejaVuSans-Bold-30" transform="translate(69.580078 0)"/>
     <use xlink:href="#DejaVuSans-Bold-31" transform="translate(139.160156 0)"/>
     <use xlink:href="#DejaVuSans-Bold-4b" transform="translate(208.740234 0)"/>
    </g>
   </g>
   <g id="text_53">
    <!-- 0.1% -->
    <g style="fill: #808080" transform="translate(613.643608 465.346746) scale(0.1 -0.1)">
     <use xlink:href="#DejaVuSans-30"/>
     <use xlink:href="#DejaVuSans-2e" transform="translate(63.623047 0)"/>
     <use xlink:href="#DejaVuSans-31" transform="translate(95.410156 0)"/>
     <use xlink:href="#DejaVuSans-25" transform="translate(159.033203 0)"/>
    </g>
   </g>
   <g id="text_54">
    <!-- 5.72M -->
    <g transform="translate(655.896951 470.14451) scale(0.1 -0.1)">
     <use xlink:href="#DejaVuSans-Bold-35"/>
     <use xlink:href="#DejaVuSans-Bold-2e" transform="translate(69.580078 0)"/>
     <use xlink:href="#DejaVuSans-Bold-37" transform="translate(107.568359 0)"/>
     <use xlink:href="#DejaVuSans-Bold-32" transform="translate(177.148438 0)"/>
     <use xlink:href="#DejaVuSans-Bold-4d" transform="translate(246.728516 0)"/>
    </g>
   </g>
   <g id="text_55">
    <!-- 0.7% -->
    <g style="fill: #808080" transform="translate(660.506326 457.401886) scale(0.1 -0.1)">
     <use xlink:href="#DejaVuSans-30"/>
     <use xlink:href="#DejaVuSans-2e" transform="translate(63.623047 0)"/>
     <use xlink:href="#DejaVuSans-37" transform="translate(95.410156 0)"/>
     <use xlink:href="#DejaVuSans-25" transform="translate(159.033203 0)"/>
    </g>
   </g>
   <g id="text_56">
    <!-- 6.68M -->
    <g transform="translate(702.75967 468.648288) scale(0.1 -0.1)">
     <use xlink:href="#DejaVuSans-Bold-36"/>
     <use xlink:href="#DejaVuSans-Bold-2e" transform="translate(69.580078 0)"/>
     <use xlink:href="#DejaVuSans-Bold-36" transform="translate(107.568359 0)"/>
     <use xlink:href="#DejaVuSans-Bold-38" transform="translate(177.148438 0)"/>
     <use xlink:href="#DejaVuSans-Bold-4d" transform="translate(246.728516 0)"/>
    </g>
   </g>
   <g id="text_57">
    <!-- 0.8% -->
    <g style="fill: #808080" transform="translate(707.369045 455.905665) scale(0.1 -0.1)">
     <use xlink:href="#DejaVuSans-30"/>
     <use xlink:href="#DejaVuSans-2e" transform="translate(63.623047 0)"/>
     <use xlink:href="#DejaVuSans-38" transform="translate(95.410156 0)"/>
     <use xlink:href="#DejaVuSans-25" transform="translate(159.033203 0)"/>
    </g>
   </g>
   <g id="text_58">
    <!-- 3.77M -->
    <g transform="translate(749.622388 473.165434) scale(0.1 -0.1)">
     <use xlink:href="#DejaVuSans-Bold-33"/>
     <use xlink:href="#DejaVuSans-Bold-2e" transform="translate(69.580078 0)"/>
     <use xlink:href="#DejaVuSans-Bold-37" transform="translate(107.568359 0)"/>
     <use xlink:href="#DejaVuSans-Bold-37" transform="translate(177.148438 0)"/>
     <use xlink:href="#DejaVuSans-Bold-4d" transform="translate(246.728516 0)"/>
    </g>
   </g>
   <g id="text_59">
    <!-- 0.4% -->
    <g style="fill: #808080" transform="translate(754.231763 460.422811) scale(0.1 -0.1)">
     <use xlink:href="#DejaVuSans-30"/>
     <use xlink:href="#DejaVuSans-2e" transform="translate(63.623047 0)"/>
     <use xlink:href="#DejaVuSans-34" transform="translate(95.410156 0)"/>
     <use xlink:href="#DejaVuSans-25" transform="translate(159.033203 0)"/>
    </g>
   </g>
   <g id="text_60">
    <!-- 5.76M -->
    <g transform="translate(796.485106 470.074673) scale(0.1 -0.1)">
     <use xlink:href="#DejaVuSans-Bold-35"/>
     <use xlink:href="#DejaVuSans-Bold-2e" transform="translate(69.580078 0)"/>
     <use xlink:href="#DejaVuSans-Bold-37" transform="translate(107.568359 0)"/>
     <use xlink:href="#DejaVuSans-Bold-36" transform="translate(177.148438 0)"/>
     <use xlink:href="#DejaVuSans-Bold-4d" transform="translate(246.728516 0)"/>
    </g>
   </g>
   <g id="text_61">
    <!-- 0.7% -->
    <g style="fill: #808080" transform="translate(801.094481 457.33205) scale(0.1 -0.1)">
     <use xlink:href="#DejaVuSans-30"/>
     <use xlink:href="#DejaVuSans-2e" transform="translate(63.623047 0)"/>
     <use xlink:href="#DejaVuSans-37" transform="translate(95.410156 0)"/>
     <use xlink:href="#DejaVuSans-25" transform="translate(159.033203 0)"/>
    </g>
   </g>
   <g id="text_62">
    <!-- 59.5K -->
    <g transform="translate(844.449386 478.929678) scale(0.1 -0.1)">
     <use xlink:href="#DejaVuSans-Bold-35"/>
     <use xlink:href="#DejaVuSans-Bold-39" transform="translate(69.580078 0)"/>
     <use xlink:href="#DejaVuSans-Bold-2e" transform="translate(139.160156 0)"/>
     <use xlink:href="#DejaVuSans-Bold-35" transform="translate(177.148438 0)"/>
     <use xlink:href="#DejaVuSans-Bold-4b" transform="translate(246.728516 0)"/>
    </g>
   </g>
   <g id="text_63">
    <!-- 0.0% -->
    <g style="fill: #808080" transform="translate(847.957199 466.187055) scale(0.1 -0.1)">
     <use xlink:href="#DejaVuSans-30"/>
     <use xlink:href="#DejaVuSans-2e" transform="translate(63.623047 0)"/>
     <use xlink:href="#DejaVuSans-30" transform="translate(95.410156 0)"/>
     <use xlink:href="#DejaVuSans-25" transform="translate(159.033203 0)"/>
    </g>
   </g>
   <g id="text_64">
    <!-- 394K -->
    <g transform="translate(893.211323 478.40962) scale(0.1 -0.1)">
     <use xlink:href="#DejaVuSans-Bold-33"/>
     <use xlink:href="#DejaVuSans-Bold-39" transform="translate(69.580078 0)"/>
     <use xlink:href="#DejaVuSans-Bold-34" transform="translate(139.160156 0)"/>
     <use xlink:href="#DejaVuSans-Bold-4b" transform="translate(208.740234 0)"/>
    </g>
   </g>
   <g id="text_65">
    <!-- 0.0% -->
    <g style="fill: #808080" transform="translate(894.819917 465.666997) scale(0.1 -0.1)">
     <use xlink:href="#DejaVuSans-30"/>
     <use xlink:href="#DejaVuSans-2e" transform="translate(63.623047 0)"/>
     <use xlink:href="#DejaVuSans-30" transform="translate(95.410156 0)"/>
     <use xlink:href="#DejaVuSans-25" transform="translate(159.033203 0)"/>
    </g>
   </g>
   <g id="text_66">
    <!-- 24.8K -->
    <g transform="translate(938.174823 478.983636) scale(0.1 -0.1)">
     <use xlink:href="#DejaVuSans-Bold-32"/>
     <use xlink:href="#DejaVuSans-Bold-34" transform="translate(69.580078 0)"/>
     <use xlink:href="#DejaVuSans-Bold-2e" transform="translate(139.160156 0)"/>
     <use xlink:href="#DejaVuSans-Bold-38" transform="translate(177.148438 0)"/>
     <use xlink:href="#DejaVuSans-Bold-4b" transform="translate(246.728516 0)"/>
    </g>
   </g>
   <g id="text_67">
    <!-- 0.0% -->
    <g style="fill: #808080" transform="translate(941.682635 466.241013) scale(0.1 -0.1)">
     <use xlink:href="#DejaVuSans-30"/>
     <use xlink:href="#DejaVuSans-2e" transform="translate(63.623047 0)"/>
     <use xlink:href="#DejaVuSans-30" transform="translate(95.410156 0)"/>
     <use xlink:href="#DejaVuSans-25" transform="translate(159.033203 0)"/>
    </g>
   </g>
   <g id="text_68">
    <!-- 3.93M -->
    <g transform="translate(983.935978 472.922186) scale(0.1 -0.1)">
     <use xlink:href="#DejaVuSans-Bold-33"/>
     <use xlink:href="#DejaVuSans-Bold-2e" transform="translate(69.580078 0)"/>
     <use xlink:href="#DejaVuSans-Bold-39" transform="translate(107.568359 0)"/>
     <use xlink:href="#DejaVuSans-Bold-33" transform="translate(177.148438 0)"/>
     <use xlink:href="#DejaVuSans-Bold-4d" transform="translate(246.728516 0)"/>
    </g>
   </g>
   <g id="text_69">
    <!-- 0.5% -->
    <g style="fill: #808080" transform="translate(988.545353 460.179563) scale(0.1 -0.1)">
     <use xlink:href="#DejaVuSans-30"/>
     <use xlink:href="#DejaVuSans-2e" transform="translate(63.623047 0)"/>
     <use xlink:href="#DejaVuSans-35" transform="translate(95.410156 0)"/>
     <use xlink:href="#DejaVuSans-25" transform="translate(159.033203 0)"/>
    </g>
   </g>
   <g id="text_70">
    <!-- Gene Pair Counts by Indicator Combinations -->
    <g transform="translate(356.658125 19.3575) scale(0.16 -0.16)">
     <defs>
      <path id="DejaVuSans-Bold-79" d="M 78 3500 
L 1197 3500 
L 2138 1125 
L 2938 3500 
L 4056 3500 
L 2584 -331 
Q 2363 -916 2067 -1148 
Q 1772 -1381 1288 -1381 
L 641 -1381 
L 641 -647 
L 991 -647 
Q 1275 -647 1404 -556 
Q 1534 -466 1606 -231 
L 1638 -134 
L 78 3500 
z
" transform="scale(0.015625)"/>
     </defs>
     <use xlink:href="#DejaVuSans-Bold-47"/>
     <use xlink:href="#DejaVuSans-Bold-65" transform="translate(82.080078 0)"/>
     <use xlink:href="#DejaVuSans-Bold-6e" transform="translate(149.902344 0)"/>
     <use xlink:href="#DejaVuSans-Bold-65" transform="translate(221.09375 0)"/>
     <use xlink:href="#DejaVuSans-Bold-20" transform="translate(288.916016 0)"/>
     <use xlink:href="#DejaVuSans-Bold-50" transform="translate(323.730469 0)"/>
     <use xlink:href="#DejaVuSans-Bold-61" transform="translate(394.396484 0)"/>
     <use xlink:href="#DejaVuSans-Bold-69" transform="translate(461.876953 0)"/>
     <use xlink:href="#DejaVuSans-Bold-72" transform="translate(496.154297 0)"/>
     <use xlink:href="#DejaVuSans-Bold-20" transform="translate(545.470703 0)"/>
     <use xlink:href="#DejaVuSans-Bold-43" transform="translate(580.285156 0)"/>
     <use xlink:href="#DejaVuSans-Bold-6f" transform="translate(653.673828 0)"/>
     <use xlink:href="#DejaVuSans-Bold-75" transform="translate(722.375 0)"/>
     <use xlink:href="#DejaVuSans-Bold-6e" transform="translate(793.566406 0)"/>
     <use xlink:href="#DejaVuSans-Bold-74" transform="translate(864.757812 0)"/>
     <use xlink:href="#DejaVuSans-Bold-73" transform="translate(912.560547 0)"/>
     <use xlink:href="#DejaVuSans-Bold-20" transform="translate(972.082031 0)"/>
     <use xlink:href="#DejaVuSans-Bold-62" transform="translate(1006.896484 0)"/>
     <use xlink:href="#DejaVuSans-Bold-79" transform="translate(1078.478516 0)"/>
     <use xlink:href="#DejaVuSans-Bold-20" transform="translate(1143.664062 0)"/>
     <use xlink:href="#DejaVuSans-Bold-49" transform="translate(1178.478516 0)"/>
     <use xlink:href="#DejaVuSans-Bold-6e" transform="translate(1215.685547 0)"/>
     <use xlink:href="#DejaVuSans-Bold-64" transform="translate(1286.876953 0)"/>
     <use xlink:href="#DejaVuSans-Bold-69" transform="translate(1358.458984 0)"/>
     <use xlink:href="#DejaVuSans-Bold-63" transform="translate(1392.736328 0)"/>
     <use xlink:href="#DejaVuSans-Bold-61" transform="translate(1452.013672 0)"/>
     <use xlink:href="#DejaVuSans-Bold-74" transform="translate(1519.494141 0)"/>
     <use xlink:href="#DejaVuSans-Bold-6f" transform="translate(1567.296875 0)"/>
     <use xlink:href="#DejaVuSans-Bold-72" transform="translate(1635.998047 0)"/>
     <use xlink:href="#DejaVuSans-Bold-20" transform="translate(1685.314453 0)"/>
     <use xlink:href="#DejaVuSans-Bold-43" transform="translate(1720.128906 0)"/>
     <use xlink:href="#DejaVuSans-Bold-6f" transform="translate(1793.517578 0)"/>
     <use xlink:href="#DejaVuSans-Bold-6d" transform="translate(1862.21875 0)"/>
     <use xlink:href="#DejaVuSans-Bold-62" transform="translate(1966.417969 0)"/>
     <use xlink:href="#DejaVuSans-Bold-69" transform="translate(2038 0)"/>
     <use xlink:href="#DejaVuSans-Bold-6e" transform="translate(2072.277344 0)"/>
     <use xlink:href="#DejaVuSans-Bold-61" transform="translate(2143.46875 0)"/>
     <use xlink:href="#DejaVuSans-Bold-74" transform="translate(2210.949219 0)"/>
     <use xlink:href="#DejaVuSans-Bold-69" transform="translate(2258.751953 0)"/>
     <use xlink:href="#DejaVuSans-Bold-6f" transform="translate(2293.029297 0)"/>
     <use xlink:href="#DejaVuSans-Bold-6e" transform="translate(2361.730469 0)"/>
     <use xlink:href="#DejaVuSans-Bold-73" transform="translate(2432.921875 0)"/>
    </g>
   </g>
   <g id="legend_1">
    <g id="patch_27">
     <path d="M 976.438438 120.748125 
L 1059.386875 120.748125 
Q 1061.386875 120.748125 1061.386875 118.748125 
L 1061.386875 46.3575 
Q 1061.386875 44.3575 1059.386875 44.3575 
L 976.438438 44.3575 
Q 974.438438 44.3575 974.438438 46.3575 
L 974.438438 118.748125 
Q 974.438438 120.748125 976.438438 120.748125 
z
" style="fill: #ffffff; opacity: 0.8; stroke: #cccccc; stroke-linejoin: miter"/>
    </g>
    <g id="patch_28">
     <path d="M 978.438438 55.955938 
L 998.438438 55.955938 
L 998.438438 48.955938 
L 978.438438 48.955938 
z
" style="fill: #2e8b57; stroke: #2e8b57; stroke-linejoin: miter"/>
    </g>
    <g id="text_71">
     <!-- All High -->
     <g transform="translate(1006.438438 55.955938) scale(0.1 -0.1)">
      <defs>
       <path id="DejaVuSans-41" d="M 2188 4044 
L 1331 1722 
L 3047 1722 
L 2188 4044 
z
M 1831 4666 
L 2547 4666 
L 4325 0 
L 3669 0 
L 3244 1197 
L 1141 1197 
L 716 0 
L 50 0 
L 1831 4666 
z
" transform="scale(0.015625)"/>
       <path id="DejaVuSans-48" d="M 628 4666 
L 1259 4666 
L 1259 2753 
L 3553 2753 
L 3553 4666 
L 4184 4666 
L 4184 0 
L 3553 0 
L 3553 2222 
L 1259 2222 
L 1259 0 
L 628 0 
L 628 4666 
z
" transform="scale(0.015625)"/>
       <path id="DejaVuSans-69" d="M 603 3500 
L 1178 3500 
L 1178 0 
L 603 0 
L 603 3500 
z
M 603 4863 
L 1178 4863 
L 1178 4134 
L 603 4134 
L 603 4863 
z
" transform="scale(0.015625)"/>
       <path id="DejaVuSans-67" d="M 2906 1791 
Q 2906 2416 2648 2759 
Q 2391 3103 1925 3103 
Q 1463 3103 1205 2759 
Q 947 2416 947 1791 
Q 947 1169 1205 825 
Q 1463 481 1925 481 
Q 2391 481 2648 825 
Q 2906 1169 2906 1791 
z
M 3481 434 
Q 3481 -459 3084 -895 
Q 2688 -1331 1869 -1331 
Q 1566 -1331 1297 -1286 
Q 1028 -1241 775 -1147 
L 775 -588 
Q 1028 -725 1275 -790 
Q 1522 -856 1778 -856 
Q 2344 -856 2625 -561 
Q 2906 -266 2906 331 
L 2906 616 
Q 2728 306 2450 153 
Q 2172 0 1784 0 
Q 1141 0 747 490 
Q 353 981 353 1791 
Q 353 2603 747 3093 
Q 1141 3584 1784 3584 
Q 2172 3584 2450 3431 
Q 2728 3278 2906 2969 
L 2906 3500 
L 3481 3500 
L 3481 434 
z
" transform="scale(0.015625)"/>
       <path id="DejaVuSans-68" d="M 3513 2113 
L 3513 0 
L 2938 0 
L 2938 2094 
Q 2938 2591 2744 2837 
Q 2550 3084 2163 3084 
Q 1697 3084 1428 2787 
Q 1159 2491 1159 1978 
L 1159 0 
L 581 0 
L 581 4863 
L 1159 4863 
L 1159 2956 
Q 1366 3272 1645 3428 
Q 1925 3584 2291 3584 
Q 2894 3584 3203 3211 
Q 3513 2838 3513 2113 
z
" transform="scale(0.015625)"/>
      </defs>
      <use xlink:href="#DejaVuSans-41"/>
      <use xlink:href="#DejaVuSans-6c" transform="translate(68.408203 0)"/>
      <use xlink:href="#DejaVuSans-6c" transform="translate(96.191406 0)"/>
      <use xlink:href="#DejaVuSans-20" transform="translate(123.974609 0)"/>
      <use xlink:href="#DejaVuSans-48" transform="translate(155.761719 0)"/>
      <use xlink:href="#DejaVuSans-69" transform="translate(230.957031 0)"/>
      <use xlink:href="#DejaVuSans-67" transform="translate(258.740234 0)"/>
      <use xlink:href="#DejaVuSans-68" transform="translate(322.216797 0)"/>
     </g>
    </g>
    <g id="patch_29">
     <path d="M 978.438438 70.634063 
L 998.438438 70.634063 
L 998.438438 63.634063 
L 978.438438 63.634063 
z
" style="fill: #dc143c; stroke: #dc143c; stroke-linejoin: miter"/>
    </g>
    <g id="text_72">
     <!-- All Low -->
     <g transform="translate(1006.438438 70.634063) scale(0.1 -0.1)">
      <defs>
       <path id="DejaVuSans-4c" d="M 628 4666 
L 1259 4666 
L 1259 531 
L 3531 531 
L 3531 0 
L 628 0 
L 628 4666 
z
" transform="scale(0.015625)"/>
       <path id="DejaVuSans-6f" d="M 1959 3097 
Q 1497 3097 1228 2736 
Q 959 2375 959 1747 
Q 959 1119 1226 758 
Q 1494 397 1959 397 
Q 2419 397 2687 759 
Q 2956 1122 2956 1747 
Q 2956 2369 2687 2733 
Q 2419 3097 1959 3097 
z
M 1959 3584 
Q 2709 3584 3137 3096 
Q 3566 2609 3566 1747 
Q 3566 888 3137 398 
Q 2709 -91 1959 -91 
Q 1206 -91 779 398 
Q 353 888 353 1747 
Q 353 2609 779 3096 
Q 1206 3584 1959 3584 
z
" transform="scale(0.015625)"/>
       <path id="DejaVuSans-77" d="M 269 3500 
L 844 3500 
L 1563 769 
L 2278 3500 
L 2956 3500 
L 3675 769 
L 4391 3500 
L 4966 3500 
L 4050 0 
L 3372 0 
L 2619 2869 
L 1863 0 
L 1184 0 
L 269 3500 
z
" transform="scale(0.015625)"/>
      </defs>
      <use xlink:href="#DejaVuSans-41"/>
      <use xlink:href="#DejaVuSans-6c" transform="translate(68.408203 0)"/>
      <use xlink:href="#DejaVuSans-6c" transform="translate(96.191406 0)"/>
      <use xlink:href="#DejaVuSans-20" transform="translate(123.974609 0)"/>
      <use xlink:href="#DejaVuSans-4c" transform="translate(155.761719 0)"/>
      <use xlink:href="#DejaVuSans-6f" transform="translate(209.724609 0)"/>
      <use xlink:href="#DejaVuSans-77" transform="translate(270.90625 0)"/>
     </g>
    </g>
    <g id="patch_30">
     <path d="M 978.438438 85.312187 
L 998.438438 85.312187 
L 998.438438 78.312187 
L 978.438438 78.312187 
z
" style="fill: #4682b4; stroke: #4682b4; stroke-linejoin: miter"/>
    </g>
    <g id="text_73">
     <!-- More High -->
     <g transform="translate(1006.438438 85.312187) scale(0.1 -0.1)">
      <defs>
       <path id="DejaVuSans-4d" d="M 628 4666 
L 1569 4666 
L 2759 1491 
L 3956 4666 
L 4897 4666 
L 4897 0 
L 4281 0 
L 4281 4097 
L 3078 897 
L 2444 897 
L 1241 4097 
L 1241 0 
L 628 0 
L 628 4666 
z
" transform="scale(0.015625)"/>
       <path id="DejaVuSans-72" d="M 2631 2963 
Q 2534 3019 2420 3045 
Q 2306 3072 2169 3072 
Q 1681 3072 1420 2755 
Q 1159 2438 1159 1844 
L 1159 0 
L 581 0 
L 581 3500 
L 1159 3500 
L 1159 2956 
Q 1341 3275 1631 3429 
Q 1922 3584 2338 3584 
Q 2397 3584 2469 3576 
Q 2541 3569 2628 3553 
L 2631 2963 
z
" transform="scale(0.015625)"/>
      </defs>
      <use xlink:href="#DejaVuSans-4d"/>
      <use xlink:href="#DejaVuSans-6f" transform="translate(86.279297 0)"/>
      <use xlink:href="#DejaVuSans-72" transform="translate(147.460938 0)"/>
      <use xlink:href="#DejaVuSans-65" transform="translate(186.324219 0)"/>
      <use xlink:href="#DejaVuSans-20" transform="translate(247.847656 0)"/>
      <use xlink:href="#DejaVuSans-48" transform="translate(279.634766 0)"/>
      <use xlink:href="#DejaVuSans-69" transform="translate(354.830078 0)"/>
      <use xlink:href="#DejaVuSans-67" transform="translate(382.613281 0)"/>
      <use xlink:href="#DejaVuSans-68" transform="translate(446.089844 0)"/>
     </g>
    </g>
    <g id="patch_31">
     <path d="M 978.438438 99.990313 
L 998.438438 99.990313 
L 998.438438 92.990313 
L 978.438438 92.990313 
z
" style="fill: #ff6347; stroke: #ff6347; stroke-linejoin: miter"/>
    </g>
    <g id="text_74">
     <!-- More Low -->
     <g transform="translate(1006.438438 99.990313) scale(0.1 -0.1)">
      <use xlink:href="#DejaVuSans-4d"/>
      <use xlink:href="#DejaVuSans-6f" transform="translate(86.279297 0)"/>
      <use xlink:href="#DejaVuSans-72" transform="translate(147.460938 0)"/>
      <use xlink:href="#DejaVuSans-65" transform="translate(186.324219 0)"/>
      <use xlink:href="#DejaVuSans-20" transform="translate(247.847656 0)"/>
      <use xlink:href="#DejaVuSans-4c" transform="translate(279.634766 0)"/>
      <use xlink:href="#DejaVuSans-6f" transform="translate(333.597656 0)"/>
      <use xlink:href="#DejaVuSans-77" transform="translate(394.779297 0)"/>
     </g>
    </g>
    <g id="patch_32">
     <path d="M 978.438438 114.668437 
L 998.438438 114.668437 
L 998.438438 107.668437 
L 978.438438 107.668437 
z
" style="fill: #9370db; stroke: #9370db; stroke-linejoin: miter"/>
    </g>
    <g id="text_75">
     <!-- Mixed -->
     <g transform="translate(1006.438438 114.668437) scale(0.1 -0.1)">
      <defs>
       <path id="DejaVuSans-78" d="M 3513 3500 
L 2247 1797 
L 3578 0 
L 2900 0 
L 1881 1375 
L 863 0 
L 184 0 
L 1544 1831 
L 300 3500 
L 978 3500 
L 1906 2253 
L 2834 3500 
L 3513 3500 
z
" transform="scale(0.015625)"/>
       <path id="DejaVuSans-64" d="M 2906 2969 
L 2906 4863 
L 3481 4863 
L 3481 0 
L 2906 0 
L 2906 525 
Q 2725 213 2448 61 
Q 2172 -91 1784 -91 
Q 1150 -91 751 415 
Q 353 922 353 1747 
Q 353 2572 751 3078 
Q 1150 3584 1784 3584 
Q 2172 3584 2448 3432 
Q 2725 3281 2906 2969 
z
M 947 1747 
Q 947 1113 1208 752 
Q 1469 391 1925 391 
Q 2381 391 2643 752 
Q 2906 1113 2906 1747 
Q 2906 2381 2643 2742 
Q 2381 3103 1925 3103 
Q 1469 3103 1208 2742 
Q 947 2381 947 1747 
z
" transform="scale(0.015625)"/>
      </defs>
      <use xlink:href="#DejaVuSans-4d"/>
      <use xlink:href="#DejaVuSans-69" transform="translate(86.279297 0)"/>
      <use xlink:href="#DejaVuSans-78" transform="translate(114.0625 0)"/>
      <use xlink:href="#DejaVuSans-65" transform="translate(170.117188 0)"/>
      <use xlink:href="#DejaVuSans-64" transform="translate(231.640625 0)"/>
     </g>
    </g>
   </g>
  </g>
 </g>
 <defs>
  <clipPath id="pa6eb4a28f5">
   <rect x="45.716875" y="39.3575" width="1020.67" height="445.991809"/>
  </clipPath>
 </defs>
</svg>
